<?xml version="1.0" encoding="UTF-8" standalone="no"?>
<svg
   xmlns:dc="http://purl.org/dc/elements/1.1/"
   xmlns:cc="http://creativecommons.org/ns#"
   xmlns:rdf="http://www.w3.org/1999/02/22-rdf-syntax-ns#"
   xmlns:svg="http://www.w3.org/2000/svg"
   xmlns="http://www.w3.org/2000/svg"
   width="200.22578mm"
   height="115.61456mm"
   viewBox="0 0 200.22578 115.61456"
   version="1.1"
   id="svg8">
  <defs
     id="defs2" />
  <metadata
     id="metadata5">
    <rdf:RDF>
      <cc:Work
         rdf:about="">
        <dc:format>image/svg+xml</dc:format>
        <dc:type
           rdf:resource="http://purl.org/dc/dcmitype/StillImage" />
        <dc:title></dc:title>
      </cc:Work>
    </rdf:RDF>
  </metadata>
  <g
     id="layer1"
     transform="translate(-0.8938813,-118.24735)">
    <g
       id="g960">
      <g
         aria-label="B"
         id="text402"
         style="font-weight:bold;font-size:19.05px;font-family:Montserrat;-inkscape-font-specification:'Montserrat Bold';fill:#0c00ff;fill-opacity:1;stroke-width:0.0231742;stroke-linecap:round;stroke-linejoin:round"
         transform="matrix(8.6302969,0,0,8.6302969,-403.23561,-652.9477)">
        <path
           id="path2076"
           style="fill:#0c00ff;fill-opacity:1;stroke-width:0.0231742"
           d="m 58.750937,89.35904 v 3.127365 c 0.0029,-1.65e-4 0.0058,-6.87e-4 0.0087,-7.79e-4 0.07794,-0.0041 0.158886,0.01068 0.223645,0.05635 1.056981,1.049002 2.109064,2.103141 3.162452,3.155926 0.180738,0.130916 0.297645,0.400509 0.164964,0.603749 -0.709144,0.723448 -1.426363,1.439237 -2.143211,2.155306 0.01835,0.01583 0.03582,0.03311 0.05108,0.05353 0.596243,1.287721 1.169745,2.586633 1.753226,3.880503 0.06506,0.0854 0.08935,0.1961 0.0785,0.30305 h 2.642892 c 1.752595,0 3.079765,-0.31748 3.981463,-0.95248 0.901699,-0.6477 1.352523,-1.54307 1.352523,-2.686064 0,-0.774698 -0.184135,-1.428742 -0.552434,-1.96214 -0.355599,-0.533398 -0.857273,-0.933495 -1.504972,-1.200193 -0.119047,-0.05135 -0.241329,-0.0979 -0.366812,-0.139815 0.518404,-0.272517 0.932782,-0.638631 1.243126,-1.098401 0.3429,-0.520698 0.514351,-1.130292 0.514351,-1.828792 0,-1.041398 -0.425459,-1.879635 -1.276358,-2.514633 -0.838198,-0.635 -2.095494,-0.952479 -3.77189,-0.952479 z m 3.067068,2.324102 h 2.113152 c 0.749298,0 1.320845,0.133345 1.714544,0.400045 0.406399,0.254 0.609558,0.641351 0.609558,1.162051 0,0.533398 -0.203159,0.933433 -0.609558,1.200133 -0.393699,0.254 -0.965246,0.381004 -1.714544,0.381004 h -2.113152 z m 0,5.39111 h 2.646544 c 0.800098,0 1.403352,0.139747 1.809751,0.419145 0.419098,0.2667 0.628658,0.679418 0.628658,1.238216 0,0.5715 -0.20956,0.990617 -0.628658,1.257317 -0.406399,0.254 -1.009653,0.381 -1.809751,0.381 h -2.646544 z" />
      </g>
      <path
         id="path2623"
         style="fill:#ff0000;fill-opacity:1;stroke:none;stroke-width:0.999999;stroke-linecap:round;stroke-linejoin:round;stroke-dasharray:none"
         d="m 72.083502,163.03149 c 8.541667,6.5e-4 17.083333,0.001 25.625,0.002 -6.548177,-14.57552 -13.096354,-29.15104 -19.644531,-43.72656 -8.301433,0 -16.602865,0 -24.904297,0 6.307943,14.57487 12.615885,29.14974 18.923828,43.72461 z m 30.425778,70.30078 c 8.92774,0 17.85547,0 26.7832,0 -5.14908,-11.46094 -10.29817,-22.92188 -15.44726,-34.38281 -2.32318,2.35785 -4.72727,4.65003 -7,7.04883 -1.45118,2.10464 -5.30005,1.68896 -6.06854,-0.82017 -0.20237,-2.59329 -0.10819,-5.21864 -0.14347,-7.82475 0.005,-2.58255 0.0154,-5.1651 0.007,-7.74766 -5.684898,0 -11.369789,0 -17.054685,0 6.307943,14.57552 12.615887,29.15104 18.923825,43.72656 z" />
      <path
         id="path2625"
         style="fill:#ff0000;fill-opacity:1;stroke:none;stroke-width:0.999999;stroke-linecap:round;stroke-linejoin:round;stroke-dasharray:none"
         d="M 50.074228,123.87497 0.8938813,233.86191 H 28.842125 l 34.419107,-79.51449 -0.0045,-0.0173 -13.17808,-30.4501 z" />
      <path
         id="path2627"
         style="font-weight:bold;font-size:19.05px;font-family:Montserrat;-inkscape-font-specification:'Montserrat Bold';fill:#ff0000;fill-opacity:1;stroke-width:0.999999;stroke-linecap:round;stroke-linejoin:round"
         d="M 103.81673,148.17088 V 166.2099 H 53.753393 l -8.754179,20.21978 h 58.817516 v 18.04351 l 28.15339,-28.15344 z" />
    </g>
  </g>
</svg>
