<?xml version="1.0" encoding="UTF-8" standalone="no"?>
<svg
   xmlns:dc="http://purl.org/dc/elements/1.1/"
   xmlns:cc="http://creativecommons.org/ns#"
   xmlns:rdf="http://www.w3.org/1999/02/22-rdf-syntax-ns#"
   xmlns:svg="http://www.w3.org/2000/svg"
   xmlns="http://www.w3.org/2000/svg"
   xmlns:sodipodi="http://sodipodi.sourceforge.net/DTD/sodipodi-0.dtd"
   xmlns:inkscape="http://www.inkscape.org/namespaces/inkscape"
   width="106.08314mm"
   height="89.668381mm"
   viewBox="0 0 106.08314 89.668381"
   version="1.1"
   id="svg2573"
   inkscape:version="1.0.2 (e86c870879, 2021-01-15)"
   sodipodi:docname="checkbox.svg">
  <defs
     id="defs2567" />
  <sodipodi:namedview
     id="base"
     pagecolor="#ffffff"
     bordercolor="#666666"
     borderopacity="1.0"
     inkscape:pageopacity="0.0"
     inkscape:pageshadow="2"
     inkscape:zoom="0.62122871"
     inkscape:cx="217.94343"
     inkscape:cy="179.48365"
     inkscape:document-units="mm"
     inkscape:current-layer="layer1"
     inkscape:document-rotation="0"
     showgrid="false"
     inkscape:snap-bbox="true"
     inkscape:snap-bbox-edge-midpoints="true"
     inkscape:bbox-paths="true"
     inkscape:snap-intersection-paths="true"
     inkscape:window-width="1410"
     inkscape:window-height="908"
     inkscape:window-x="0"
     inkscape:window-y="0"
     inkscape:window-maximized="1"
     fit-margin-top="0"
     fit-margin-left="0"
     fit-margin-right="0"
     fit-margin-bottom="0" />
  <metadata
     id="metadata2570">
    <rdf:RDF>
      <cc:Work
         rdf:about="">
        <dc:format>image/svg+xml</dc:format>
        <dc:type
           rdf:resource="http://purl.org/dc/dcmitype/StillImage" />
        <dc:title></dc:title>
      </cc:Work>
    </rdf:RDF>
  </metadata>
  <g
     inkscape:label="Layer 1"
     inkscape:groupmode="layer"
     id="layer1"
     transform="translate(-36.321539,-77.490234)">
    <g
       id="g3278">
      <path
         id="circle3167"
         style="fill:none;stroke:#893fa1;stroke-width:1.5;stroke-linecap:round;stroke-linejoin:round;stroke-miterlimit:4;stroke-dasharray:none;stroke-opacity:1;stop-color:#000000"
         d="M 80.257812,78.244141 C 64.397566,78.461806 48.986098,88.001869 41.9132,102.23243 c -6.478472,12.5023 -6.489209,28.1811 0.20515,40.60128 5.99541,11.47643 17.262661,20.11216 29.992229,22.63945 11.801172,2.49959 24.618916,-0.0652 34.435571,-7.11503 9.62622,-6.76217 16.4023,-17.50071 18.14346,-29.15673 1.83251,-11.51944 -1.07965,-23.74904 -8.1008,-33.089786 -6.91983,-9.375006 -17.670285,-15.861561 -29.236762,-17.418299 -2.347431,-0.340596 -4.72298,-0.478833 -7.094236,-0.449174 z" />
      <path
         id="path3136"
         style="fill:#893fa1;fill-opacity:1;stroke:none;stroke-width:0.264999;stroke-linecap:round;stroke-linejoin:round;stop-color:#000000"
         d="m 104.84536,153.04918 a 38.801891,38.801891 0 0 1 -54.308244,-6.8683 38.801891,38.801891 0 0 1 6.604644,-54.340943 38.801891,38.801891 0 0 1 54.37236,6.340832 38.801891,38.801891 0 0 1 -6.07688,54.402491" />
      <path
         id="path3142"
         style="fill:#ffffff;stroke:#893fa1;stroke-width:1.5;stroke-linecap:butt;stroke-linejoin:miter;stroke-miterlimit:4;stroke-dasharray:none;stroke-opacity:1"
         d="M 141.84245,78.094678 80.169782,123.39819 53.426471,112.41809 c 9.618432,15.10809 18.720803,25.81313 27.460424,34.71709 z"
         sodipodi:nodetypes="ccccc" />
    </g>
  </g>
</svg>
