<?xml version="1.0" encoding="UTF-8" standalone="no"?>
<svg
   xmlns:dc="http://purl.org/dc/elements/1.1/"
   xmlns:cc="http://creativecommons.org/ns#"
   xmlns:rdf="http://www.w3.org/1999/02/22-rdf-syntax-ns#"
   xmlns:svg="http://www.w3.org/2000/svg"
   xmlns="http://www.w3.org/2000/svg"
   xmlns:sodipodi="http://sodipodi.sourceforge.net/DTD/sodipodi-0.dtd"
   xmlns:inkscape="http://www.inkscape.org/namespaces/inkscape"
   width="184.24625mm"
   height="164.63885mm"
   viewBox="0 0 184.24625 164.63885"
   version="1.1"
   id="svg2298"
   inkscape:version="1.0.2 (e86c870879, 2021-01-15)"
   sodipodi:docname="deploy-illustration.svg">
  <defs
     id="defs2292" />
  <sodipodi:namedview
     id="base"
     pagecolor="#ffffff"
     bordercolor="#666666"
     borderopacity="1.0"
     inkscape:pageopacity="0.0"
     inkscape:pageshadow="2"
     inkscape:zoom="0.49990668"
     inkscape:cx="394.07692"
     inkscape:cy="83.705196"
     inkscape:document-units="mm"
     inkscape:current-layer="layer1"
     inkscape:document-rotation="0"
     showgrid="false"
     fit-margin-top="0"
     fit-margin-left="0"
     fit-margin-right="0"
     fit-margin-bottom="0"
     inkscape:window-width="1410"
     inkscape:window-height="908"
     inkscape:window-x="0"
     inkscape:window-y="0"
     inkscape:window-maximized="1"
     inkscape:snap-page="true" />
  <metadata
     id="metadata2295">
    <rdf:RDF>
      <cc:Work
         rdf:about="">
        <dc:format>image/svg+xml</dc:format>
        <dc:type
           rdf:resource="http://purl.org/dc/dcmitype/StillImage" />
        <dc:title></dc:title>
      </cc:Work>
    </rdf:RDF>
  </metadata>
  <g
     inkscape:label="Layer 1"
     inkscape:groupmode="layer"
     id="layer1"
     transform="translate(-33.673895,-34.16425)">
    <rect
       style="fill:#ffffff;fill-opacity:1;stroke-width:3.96875;stroke-linecap:round;stroke-linejoin:round;stop-color:#000000"
       id="rect4078"
       width="184.24625"
       height="164.63885"
       x="33.673897"
       y="34.164249" />
    <path
       d="m 155.86694,61.939481 c -2.12909,-7.131688 -8.14406,-11.787452 -15.4123,-12.808813 -0.08,-0.01127 -0.15584,0.0036 -0.23545,-0.0016 a 2.2966124,2.2966124 0 0 0 -0.31421,-0.07236 c -9.99543,-1.291831 -20.90677,1.021802 -29.5912,6.455516 -8.3244,5.208452 -17.889299,8.147314 -27.708629,8.082015 q -0.45741,-0.003 -0.9184,0.01984 c -7.55671,0.37706 -14.22569,5.877806 -16.26858,13.112908 -0.26811,0.949265 0.19908,1.797453 0.95034,2.335406 1.32009,0.945483 2.22181,1.608138 3.846,1.952204 q 4.34715,0.920949 8.724,1.693696 V 71.085447 a 4.155141,4.155141 0 0 1 4.15033,-4.150329 h 57.009539 a 4.1551436,4.1551436 0 0 1 4.15033,4.150329 v 14.474695 a 17.070464,17.070464 0 0 0 2.284,-0.899025 17.683993,17.683993 0 0 0 6.81791,-5.949686 c 3.30057,-4.789043 4.17232,-11.225342 2.51632,-16.77195 z"
       fill="#f2f2f2"
       id="path3441"
       style="stroke-width:0.264583" />
    <g
       id="g4058">
      <path
         d="m 97.316431,50.320309 a 3.7426661,3.7426661 0 1 1 3.742659,-3.742666 3.7469206,3.7469206 0 0 1 -3.742659,3.742666 z m 0,-6.95616 a 3.2134995,3.2134995 0 1 0 3.213489,3.213494 3.2170687,3.2170687 0 0 0 -3.213489,-3.213499 z"
         fill="#f2f2f2"
         id="path3489"
         style="fill:#84429e;fill-opacity:1;stroke-width:0.264583" />
      <path
         d="m 98.781601,46.402603 -1.16067,-1.411431 a 0.34215652,0.34215652 0 0 0 -0.52116,-0.0086 l -1.24121,1.41143 a 0.34212741,0.34212741 0 0 0 0.51382,0.451861 l 0.64218,-0.73025 v 1.831149 a 0.34211,0.34211 0 0 0 0.68422,0 v -1.78359 l 0.55431,0.674071 a 0.3421138,0.3421138 0 0 0 0.52848,-0.434599 z"
         fill="#f2f2f2"
         id="path3491"
         style="fill:#84429e;fill-opacity:1;stroke-width:0.264583" />
      <path
         d="M 94.141428,63.73705 H 50.220595 A 1.3244512,1.3244512 0 0 1 48.897678,62.41414 V 47.59747 a 1.3244539,1.3244539 0 0 1 1.322917,-1.32292 h 43.920833 a 1.3244327,1.3244327 0 0 1 1.322916,1.32292 v 14.81667 a 1.3244327,1.3244327 0 0 1 -1.322916,1.32291 z"
         fill="#3f3d56"
         id="path3582"
         style="fill:#999999;stroke-width:0.264583" />
      <rect
         x="55.776844"
         y="50.243317"
         width="11.641666"
         height="1.3229166"
         fill="#ffffff"
         id="rect3584"
         style="stroke-width:0.264583" />
      <circle
         cx="82.764343"
         cy="51.037048"
         r="0.79374999"
         fill="#6c63ff"
         id="circle3586"
         style="stroke-width:0.264583" />
      <circle
         cx="85.410179"
         cy="51.037048"
         r="0.79374999"
         fill="#6c63ff"
         id="circle3588"
         style="stroke-width:0.264583" />
      <circle
         cx="88.056015"
         cy="51.037048"
         r="0.79374999"
         fill="#6c63ff"
         id="circle3590"
         style="stroke-width:0.264583" />
      <path
         d="M 94.141428,82.52247 H 50.220595 A 1.3244512,1.3244512 0 0 1 48.897678,81.19955 V 66.38289 a 1.3244539,1.3244539 0 0 1 1.322917,-1.32292 h 43.920833 a 1.3244327,1.3244327 0 0 1 1.322916,1.32292 v 14.81666 a 1.3244327,1.3244327 0 0 1 -1.322916,1.32292 z"
         fill="#3f3d56"
         id="path3592"
         style="fill:#999999;stroke-width:0.264583" />
      <rect
         x="55.776844"
         y="69.028717"
         width="11.641666"
         height="1.3229166"
         fill="#ffffff"
         id="rect3594"
         style="stroke-width:0.264583" />
      <circle
         cx="82.764343"
         cy="69.822479"
         r="0.79374999"
         fill="#6c63ff"
         id="circle3596"
         style="stroke-width:0.264583" />
      <circle
         cx="85.410179"
         cy="69.822479"
         r="0.79374999"
         fill="#6c63ff"
         id="circle3598"
         style="stroke-width:0.264583" />
      <circle
         cx="88.056015"
         cy="69.822479"
         r="0.79374999"
         fill="#6c63ff"
         id="circle3600"
         style="stroke-width:0.264583" />
      <path
         d="M 94.141428,101.30789 H 50.220595 A 1.3244512,1.3244512 0 0 1 48.897678,99.98497 V 85.1683 a 1.3244539,1.3244539 0 0 1 1.322917,-1.32291 h 43.920833 a 1.3244327,1.3244327 0 0 1 1.322916,1.32291 v 14.81667 a 1.3244327,1.3244327 0 0 1 -1.322916,1.32292 z"
         fill="#3f3d56"
         id="path3602"
         style="fill:#999999;stroke-width:0.264583" />
      <rect
         x="55.776844"
         y="87.814148"
         width="11.641666"
         height="1.3229166"
         fill="#ffffff"
         id="rect3604"
         style="stroke-width:0.264583" />
      <circle
         cx="82.764343"
         cy="88.60788"
         r="0.79374999"
         fill="#6c63ff"
         id="circle3606"
         style="stroke-width:0.264583" />
      <circle
         cx="85.410179"
         cy="88.60788"
         r="0.79374999"
         fill="#6c63ff"
         id="circle3608"
         style="stroke-width:0.264583" />
      <circle
         cx="88.056015"
         cy="88.60788"
         r="0.79374999"
         fill="#6c63ff"
         id="circle3610"
         style="stroke-width:0.264583" />
      <polygon
         points="2,295.234 168,295.234 168,297.234 0,297.234 0,231 2,231 "
         fill="#cccccc"
         id="polygon3612"
         transform="matrix(0.26458333,0,0,0.26458333,33.673895,34.16425)" />
      <polygon
         points="271,2 105,2 105,0 273,0 273,66.234 271,66.234 "
         fill="#cccccc"
         id="polygon3614"
         transform="matrix(0.26458333,0,0,0.26458333,33.673895,34.16425)" />
      <circle
         id="a01a8c4b-bf8b-4728-9381-d6cbaed15ee5"
         data-name="Ellipse 90"
         cx="88.814171"
         cy="86.406265"
         r="0.38274118"
         fill="#ffffff"
         style="stroke-width:0.264582" />
      <circle
         id="a70f271b-ee75-4447-9507-72af025f0784"
         data-name="Ellipse 91"
         cx="90.26693"
         cy="86.406265"
         r="0.38274118"
         fill="#ffffff"
         style="stroke-width:0.264582" />
      <circle
         id="b6ae4294-4107-4abd-ba05-1d458fcbc8d7"
         data-name="Ellipse 92"
         cx="91.719757"
         cy="86.406265"
         r="0.38274118"
         fill="#ffffff"
         style="stroke-width:0.264582" />
    </g>
    <path
       d="M 131.8635,129.95989 H 81.466431 a 4.3916467,4.3916467 0 0 1 -4.38656,-4.38655 v -19.55548 a 45.763672,45.763672 0 0 0 -18.97493,-1.66317 2.2966124,2.2966124 0 0 0 -0.31421,0.0724 c -0.0796,0.005 -0.1555,-0.01 -0.23545,0.002 -7.26825,1.02137 -13.28322,5.67713 -15.41231,12.80881 -1.656,5.54661 -0.78425,11.98291 2.51632,16.77194 a 17.683993,17.683993 0 0 0 6.81792,5.94969 c 3.78019,1.82093 7.75899,1.95784 11.88487,2.08642 a 269.41899,269.41899 0 0 0 37.110719,-1.40273 q 9.09692,-0.97569 18.11829,-2.55015 4.6174,-0.80806 9.20432,-1.77996 c 1.62419,-0.34407 2.52591,-1.00672 3.84601,-1.95221 0.75126,-0.53795 1.21845,-1.38615 0.95034,-2.3354 a 17.411983,17.411983 0 0 0 -0.72826,-2.06509 z"
       fill="#f2f2f2"
       id="path3443"
       style="stroke-width:0.264583" />
    <path
       d="m 178.10354,142.75092 a 2.0429326,2.0429326 0 0 1 1.07017,-2.94412 l -0.10519,-7.25914 3.17923,2.03107 -0.38753,6.58201 a 2.0540054,2.0540054 0 0 1 -3.75668,1.59019 z"
       fill="#a0616a"
       id="path3435"
       style="stroke-width:0.264583" />
    <path
       d="m 174.27201,103.33967 a 4.1379854,4.1379854 0 0 0 -3.41689,3.9841 c -0.046,2.12451 0.66293,2.91667 1.66479,3.20292 1.85209,0.52917 4.8017,11.23112 4.8017,11.23112 0,0 0.31307,9.98159 0.818,9.48871 0.50492,-0.49288 -0.0665,0.65728 0.0869,1.00824 0.15343,0.35096 -0.7273,0.87657 0.10994,1.27522 0.83724,0.39866 0.30807,3.57366 0.30807,3.57366 l 3.70417,-0.26458 c 0,0 -0.61504,-2.5865 0.22165,-2.74846 0.83668,-0.16196 0.45649,-0.89806 0.11742,-1.45605 -0.33907,-0.55799 0.5999,-1.3533 0.13041,-1.61711 -0.46948,-0.2638 0.85343,-10.58254 0.85343,-10.58254 l -5.17229,-15.21875 a 4.1385781,4.1385781 0 0 0 -4.2273,-1.87649 z"
       fill="#6c63ff"
       id="path3437"
       style="stroke-width:0.264583" />
    <polygon
       points="493.882,231.943 460,230.943 470.071,213.291 483.677,213.291 "
       fill="#6c63ff"
       id="polygon3439"
       transform="matrix(0.26458333,0,0,0.26458333,41.325791,42.834972)" />
    <path
       d="M 136.32363,124.15837 H 86.863591 a 3.6048976,3.6048976 0 0 1 -3.60071,-3.60071 V 74.593462 a 3.6048976,3.6048976 0 0 1 3.60071,-3.600715 h 49.460039 a 3.604895,3.604895 0 0 1 3.60072,3.600715 v 45.964188 a 3.604895,3.604895 0 0 1 -3.60072,3.60072 z"
       fill="#e6e6e6"
       id="path3445"
       style="stroke-width:0.264583" />
    <path
       d="M 125.91374,121.72964 H 89.292911 a 3.6048976,3.6048976 0 0 1 -3.60072,-3.60072 V 77.024133 a 3.6048976,3.6048976 0 0 1 3.60072,-3.600714 H 133.8949 a 3.6048976,3.6048976 0 0 1 3.60071,3.600714 v 33.123627 a 11.594936,11.594936 0 0 1 -11.58187,11.58188 z"
       fill="#ffffff"
       id="path3447"
       style="stroke-width:0.264583" />
    <path
       d="m 118.39279,96.764502 -5.38586,-6.549472 a 1.5876984,1.5876984 0 0 0 -2.41833,-0.04005 l -5.75959,6.549469 a 1.5875767,1.5875767 0 0 0 2.38435,2.096773 l 2.97994,-3.388635 v 8.497093 a 1.5875,1.5875 0 0 0 3.175,0 v -8.276402 l 2.5722,3.127905 a 1.5875119,1.5875119 0 0 0 2.4523,-2.016673 z"
       fill="#ffffff"
       id="path3451"
       style="stroke-width:0.264583" />
    <polygon
       points="528.456,543.417 528.453,578.324 519.404,578.323 515.099,543.416 "
       fill="#a0616a"
       id="polygon3453"
       transform="matrix(0.26458333,0,0,0.26458333,41.325791,42.834972)" />
    <path
       d="m 181.23015,198.34765 -7.3632,-2.7e-4 v -0.0931 a 2.8661201,2.8661201 0 0 1 2.86597,-2.86591 h 1.7e-4 l 1.34499,-1.02038 2.50944,1.02053 0.64275,3e-5 z"
       fill="#2f2e41"
       id="path3455"
       style="stroke-width:0.264583" />
    <polygon
       points="460.456,543.417 460.453,578.324 451.404,578.323 447.099,543.416 "
       fill="#a0616a"
       id="polygon3457"
       transform="matrix(0.26458333,0,0,0.26458333,41.325791,42.834972)" />
    <path
       d="m 163.23848,198.34765 -7.3632,-2.7e-4 v -0.0931 a 2.8661201,2.8661201 0 0 1 2.86597,-2.86591 h 1.8e-4 l 1.34498,-1.02038 2.50944,1.02053 0.64276,3e-5 z"
       fill="#2f2e41"
       id="path3459"
       style="stroke-width:0.264583" />
    <path
       d="m 181.90926,188.20593 c 0.87356,-0.57086 0.36749,-0.5338 0.36749,-0.5338 0,0 -1.95342,-15.83794 -3.43959,-20.6375 l -1.71977,-23.37238 c 0,0 -0.10919,0.46624 0,-0.66693 0.10918,-1.13317 0.90293,-0.33942 0.10918,-1.13317 -0.79375,-0.79375 -1.32292,-1.19821 -0.79375,-1.78973 0.52917,-0.59152 1.98893,-1.78822 1.12675,-2.51278 -0.86217,-0.72457 -2.55885,-5.45001 -2.55885,-5.45001 l -16.53647,0.13229 0.66146,-0.13229 c 0,0 -2.06424,-0.76586 -1.11866,0.23151 0.94557,0.99737 -0.52917,3.43958 -1.05834,5.82083 -0.43826,1.97221 -1.73931,2.49557 0,2.91042 1.73932,0.41483 0.1653,1.59039 0.1653,1.59039 0,0 -2.61851,12.4656 -0.63413,20.66768 0,0 1.36899,20.28607 2.062,22.03077 0.69303,1.74467 0.95762,0.68634 0.69303,1.74467 -0.26458,1.05833 -0.79375,-0.79375 -0.26458,1.05833 a 24.477316,24.477316 0 0 1 0.68455,2.94748 l 3.58836,-0.26458 c 0,0 0.83333,-2.62663 0,-3.31622 -0.83333,-0.68959 -0.25794,1.32292 0.64499,-0.2125 0.90293,-1.53542 -0.1554,-1.00626 -0.41998,-3.12293 -0.26459,-2.11666 2.16288,-11.97707 0.41998,-18.02708 l 3.22085,-16.9764 5.11351,17.57805 c 0,0 2.71232,21.46833 3.59357,22.22501 0.88124,0.75667 0.52536,-1.08005 0.88124,0.75667 0.35964,1.85608 1.17648,1.36397 1.15339,1.59149 -0.2464,2.42687 4.05847,0.0331 4.05847,0.0331 a 13.590357,13.590357 0 0 1 0,-1.85206 c 0.0798,-0.56625 -0.87355,-0.74745 0,-1.3183 z"
       fill="#2f2e41"
       id="path3461"
       style="stroke-width:0.264583" />
    <path
       d="m 160.12371,137.63281 c -1.05834,0 -3.96875,-1.43333 -3.43959,-2.03958 0.52917,-0.60626 0.52917,-2.61876 0.52917,-3.20001 0,-0.58125 2.38125,-22.01249 2.38125,-22.01249 l -0.18094,-5.24735 a 2.3447692,2.3447692 0 0 1 2.34337,-2.42557 l 2.33548,-0.79375 6.61458,-0.26458 3.29842,1.05833 a 1.9121067,1.9121067 0 0 1 1.70318,2.78122 v 0 a 17.217554,17.217554 0 0 1 2.52751,9.51297 c -0.0759,2.50595 -1.34548,5.56631 -1.65143,8.39739 -0.0269,0.2485 -0.0463,0.49523 -0.0568,0.73966 -0.003,0.0682 -0.54455,0.40784 -0.008,0.20392 0.53686,-0.20392 -0.28773,0.51585 -0.008,0.94972 0.28001,0.43386 0.82267,0.16801 0.0222,0.69781 -0.8005,0.52981 0.96112,5.64735 0.787,5.82147 -0.52917,0.52917 -1.5875,0.79375 -0.79375,1.5875 0.79375,0.79375 1.5875,0.26458 0.52916,1.32292 -1.05833,1.05833 -4.22916,2.91041 -4.22916,2.91041 z"
       fill="#3f3d56"
       id="path3463"
       style="stroke-width:0.264583" />
    <circle
       cx="167.1971"
       cy="92.882385"
       r="5.6946774"
       fill="#a0616a"
       id="circle3465"
       style="stroke-width:0.264583" />
    <path
       d="m 132.5128,110.5511 a 2.0429352,2.0429352 0 0 1 2.81051,1.38353 l 7.22762,0.68368 -2.36427,2.93988 -6.501,-1.09997 a 2.0540054,2.0540054 0 0 1 -1.17286,-3.90714 z"
       fill="#a0616a"
       id="path3467"
       style="stroke-width:0.264583" />
    <path
       d="m 166.78157,106.31198 a 4.1379907,4.1379907 0 0 0 -3.9841,-3.41689 c -2.1245,-0.046 -2.91667,0.66294 -3.20292,1.6648 -0.52916,1.85209 -9.04791,8.36247 -9.04791,8.36247 l -7.31604,-0.79175 c -0.43995,-0.14292 -0.23132,-0.54355 -1.88539,-0.20403 -0.81479,-0.53359 -1.34158,-0.44318 -1.79519,-0.19428 l -2.70963,-0.29324 0.26459,4.23333 c 0,0 2.90074,-0.69003 3.43958,0.52917 0.53884,1.2192 0.41552,1.39433 1.5875,0.52917 1.17198,-0.86517 1.05833,0 1.05833,0 l 8.46667,2.11666 13.24804,-8.30809 a 4.1385781,4.1385781 0 0 0 1.87649,-4.22731 z"
       fill="#6c63ff"
       id="path3469"
       style="stroke-width:0.264583" />
    <path
       d="m 169.40794,97.966454 0.37306,0.119063 c -1.16681,0.0979 -3.24643,0.74877 -3.0427,0.388937 0.20373,-0.359833 -0.56621,-1.717146 -0.1905,-1.889125 a 2.38937,2.38937 0 0 0 1.01071,-0.685271 c 0.23812,-0.333375 0.23283,-0.883708 -0.12436,-1.087437 -0.3466,-0.201084 -0.77523,0.01588 -1.11919,0.219604 -0.3466,0.201083 -0.98689,-2.756958 -0.82285,-3.680354 -0.96573,-0.529167 -2.13519,0.484187 -3.21998,0.28575 -0.6641,-0.121708 -1.143,-0.66675 -1.44462,-1.285875 a 4.0338374,4.0338374 0 0 0 1.06627,-1.698625 5.2677615,5.2677615 0 0 1 -1.4605,0.484187 3.4318866,3.4318866 0 0 1 0.037,-1.449916 2.3661237,2.3661237 0 0 1 1.47373,-1.677459 1.7151217,1.7151217 0 0 1 2.01083,0.746125 1.7050702,1.7050702 0 0 0 -1.0795,-1.693333 1.7929119,1.7929119 0 0 1 2.57969,1.219729 5.5388642,5.5388642 0 0 1 3.86027,-0.41275 c 1.28058,0.336021 2.97921,1.756834 2.97921,1.756834 2.88923,0.637659 2.75166,11.623164 -2.88661,10.339916 z"
       fill="#2f2e41"
       id="path3471"
       style="stroke-width:0.264583" />
    <path
       d="m 199.57742,196.07707 a 0.32183916,0.32183916 0 0 0 0.23325,-0.55782 l -0.022,-0.0877 0.009,-0.021 a 0.86427732,0.86427732 0 0 1 1.59426,0.006 c 0.26075,0.628 0.59273,1.25708 0.67447,1.92109 a 2.5569148,2.5569148 0 0 1 -0.0449,0.87935 10.250995,10.250995 0 0 0 0.93249,-4.25756 9.8947445,9.8947445 0 0 0 -0.0614,-1.10378 q -0.0508,-0.45068 -0.14107,-0.89494 a 10.369775,10.369775 0 0 0 -2.05641,-4.39496 2.7596941,2.7596941 0 0 1 -1.14774,-1.1908 2.1050726,2.1050726 0 0 1 -0.19144,-0.57525 2.5979437,2.5979437 0 0 0 0.16854,-0.89585 c 0.0779,-0.11816 0.21723,-0.1769 0.30228,-0.2922 0.42295,-0.57344 1.00568,-0.47332 1.30988,0.30594 0.64986,0.32799 0.65615,0.87192 0.2574,1.39507 -0.25369,0.33283 -0.28854,0.78317 -0.51113,1.1395 0.0229,0.0293 0.0467,0.0577 0.0696,0.087 a 10.436675,10.436675 0 0 1 1.08932,1.72575 4.3386851,4.3386851 0 0 1 0.25903,-2.01521 c 0.24793,-0.5981 0.71264,-1.10182 1.12187,-1.61888 a 0.89052399,0.89052399 0 0 1 1.58612,0.43728 l 0.002,0.0229 q -0.0912,0.0514 -0.1785,0.10919 a 0.43656249,0.43656249 0 0 0 0.17601,0.79444 l 0.009,0.001 a 4.3439476,4.3439476 0 0 1 -0.11449,0.64945 c 0.52499,2.03027 -0.60843,2.76974 -2.2268,2.80296 -0.0357,0.0183 -0.0705,0.0366 -0.10626,0.0541 a 10.652654,10.652654 0 0 1 0.57342,2.69853 10.103583,10.103583 0 0 1 -0.007,1.6314 l 0.003,-0.0192 a 2.6698628,2.6698628 0 0 1 0.91142,-1.54163 c 0.70139,-0.57617 1.69232,-0.78834 2.44899,-1.25146 a 0.50105733,0.50105733 0 0 1 0.76742,0.48745 l -0.003,0.0202 a 2.932041,2.932041 0 0 0 -0.32884,0.15845 q -0.0912,0.0514 -0.1785,0.1092 a 0.43656249,0.43656249 0 0 0 0.17601,0.79445 l 0.009,0.001 0.0183,0.003 a 4.347411,4.347411 0 0 1 -0.79966,1.25216 c -0.32826,1.77235 -1.73815,1.94051 -3.2463,1.42438 h -8e-4 a 10.649744,10.649744 0 0 1 -0.71539,2.08848 h -2.55564 c -0.009,-0.0284 -0.0174,-0.0577 -0.0257,-0.0861 a 2.9038179,2.9038179 0 0 0 0.70716,-0.0421 c -0.18962,-0.23267 -0.37923,-0.46717 -0.56884,-0.69982 a 0.15929504,0.15929504 0 0 1 -0.0119,-0.0137 c -0.0962,-0.11906 -0.19327,-0.23724 -0.28945,-0.35632 l -5e-5,-1.4e-4 a 4.2532908,4.2532908 0 0 1 0.12461,-1.08349 z"
       fill="#f2f2f2"
       id="path3473"
       style="stroke-width:0.264583;fill:#a2da6a;fill-opacity:1" />
    <path
       d="m 114.49075,198.7218 103.11491,0.0813 a 0.3150355,0.3150355 0 0 0 0,-0.63007 l -103.11491,-0.0813 a 0.31503408,0.31503408 0 0 0 0,0.63006 z"
       fill="#cacaca"
       id="path3475"
       style="stroke-width:0.264583" />
    <path
       d="m 109.22268,154.56614 a 3.7426661,3.7426661 0 1 1 3.74266,-3.74267 3.7469206,3.7469206 0 0 1 -3.74266,3.74267 z m 0,-6.95616 a 3.2134995,3.2134995 0 1 0 3.21349,3.21349 3.2170687,3.2170687 0 0 0 -3.21349,-3.21349 z"
       fill="#f2f2f2"
       id="path3477"
       style="fill:#84429e;fill-opacity:1;stroke-width:0.264583" />
    <path
       d="m 110.68784,150.64843 -1.16066,-1.41143 a 0.34215652,0.34215652 0 0 0 -0.52116,-0.009 l -1.24121,1.41143 a 0.34212741,0.34212741 0 0 0 0.51382,0.45187 l 0.64218,-0.73026 v 1.83115 a 0.34211,0.34211 0 1 0 0.68422,0 V 150.409 l 0.55431,0.67407 a 0.3421138,0.3421138 0 0 0 0.52848,-0.43459 z"
       fill="#f2f2f2"
       id="path3479"
       style="fill:#84429e;fill-opacity:1;stroke-width:0.264583" />
    <path
       d="m 151.82059,99.268225 a 3.7426661,3.7426661 0 1 1 3.74267,-3.742666 3.7469206,3.7469206 0 0 1 -3.74267,3.742666 z m 0,-6.95616 a 3.2134995,3.2134995 0 1 0 3.2135,3.213494 3.2170687,3.2170687 0 0 0 -3.2135,-3.213499 z"
       fill="#f2f2f2"
       id="path3481"
       style="fill:#84429e;fill-opacity:1;stroke-width:0.264583" />
    <path
       d="m 153.28576,95.350519 -1.16067,-1.411431 a 0.34215652,0.34215652 0 0 0 -0.52115,-0.0086 l -1.24121,1.41143 a 0.34212741,0.34212741 0 0 0 0.51382,0.451861 l 0.64218,-0.73025 v 1.83115 a 0.34210625,0.34210625 0 1 0 0.68421,0 v -1.783591 l 0.55432,0.674071 a 0.3421138,0.3421138 0 0 0 0.52848,-0.434599 z"
       fill="#f2f2f2"
       id="path3483"
       style="fill:#84429e;fill-opacity:1;stroke-width:0.264583" />
    <path
       d="m 57.364341,123.87448 a 3.7427296,3.7427296 0 1 1 3.74267,-3.74267 3.7469206,3.7469206 0 0 1 -3.74267,3.74267 z m 0,-6.9563 a 3.213563,3.213563 0 1 0 3.2135,3.21363 3.2171772,3.2171772 0 0 0 -3.2135,-3.21363 z"
       fill="#ffffff"
       id="path3493"
       style="fill:#84429e;fill-opacity:1;stroke-width:0.264583" />
    <path
       d="m 58.829511,119.95677 -1.16066,-1.41143 a 0.34215652,0.34215652 0 0 0 -0.52116,-0.009 l -1.24121,1.41143 a 0.34212741,0.34212741 0 0 0 0.51382,0.45186 l 0.64218,-0.73025 v 1.83115 a 0.34210625,0.34210625 0 0 0 0.68421,0 v -1.78359 l 0.55432,0.67407 a 0.34211411,0.34211411 0 0 0 0.52848,-0.4346 z"
       fill="#ffffff"
       id="path3495"
       style="fill:#84429e;fill-opacity:1;stroke-width:0.264583" />
    <path
       d="m 138.32684,61.168226 a 3.7427296,3.7427296 0 1 1 3.74267,-3.742666 3.7469206,3.7469206 0 0 1 -3.74267,3.742666 z m 0,-6.956293 a 3.213563,3.213563 0 1 0 3.2135,3.213629 3.2171772,3.2171772 0 0 0 -3.2135,-3.213629 z"
       fill="#ffffff"
       id="path3497"
       style="fill:#84429e;fill-opacity:1;stroke-width:0.264583" />
    <path
       d="m 139.79201,57.250519 -1.16067,-1.41143 a 0.34215652,0.34215652 0 0 0 -0.52115,-0.0086 l -1.24121,1.411431 a 0.34212741,0.34212741 0 0 0 0.51382,0.451861 l 0.64218,-0.73025 v 1.831149 a 0.34210625,0.34210625 0 1 0 0.68421,0 v -1.783591 l 0.55432,0.674071 a 0.3421138,0.3421138 0 0 0 0.52848,-0.434599 z"
       fill="#ffffff"
       id="path3499"
       style="fill:#84429e;fill-opacity:1;stroke-width:0.264583" />
    <rect
       id="f54375ad-557d-4249-95e2-413e25c77bd8"
       data-name="Rectangle 62"
       x="87.300339"
       y="86.710205"
       width="48.607853"
       height="23.065268"
       fill="#e5e5e5"
       style="stroke-width:0.264582" />
    <rect
       id="eb84611c-d49d-4ce2-b538-4fee0a7e188d"
       data-name="Rectangle 75"
       x="88.6903"
       y="88.688087"
       width="45.828003"
       height="19.244074"
       fill="#ffffff"
       style="stroke-width:0.264582" />
    <rect
       id="a33b5263-04c3-449f-a8ad-1420252c1e48"
       data-name="Rectangle 80"
       width="48.607853"
       height="2.065006"
       fill="#6c63ff"
       x="87.279617"
       y="85.377586"
       style="fill:#84429e;fill-opacity:1;stroke-width:0.264582" />
    <path
       id="a98f5d70-28fc-4129-b4f3-463d07786f2f-736"
       data-name="Path 680"
       d="m 96.198464,93.069001 a 0.18870125,0.18870125 0 0 0 0,0.377402 h 5.155956 a 0.18870125,0.18870125 0 1 0 0,-0.377402 z"
       fill="#3f3d56"
       style="stroke-width:0.264582" />
    <path
       id="a5717240-4d8d-4c71-83bc-6deeb889f166-737"
       data-name="Path 680"
       d="m 93.282492,95.667391 a 0.1887015,0.1887015 0 0 0 0,0.377403 h 10.987898 a 0.1887015,0.1887015 0 1 0 0,-0.377403 z"
       fill="#cccccc"
       style="stroke-width:0.264582" />
    <path
       id="f9c6f13d-6e3a-4758-9844-a0f5d5c969ce-738"
       data-name="Path 680"
       d="m 93.282492,97.168684 a 0.18870089,0.18870089 0 0 0 0,0.377401 h 10.987898 a 0.18870089,0.18870089 0 1 0 0,-0.377401 z"
       fill="#cccccc"
       style="stroke-width:0.264582" />
    <path
       id="bf808dfd-2bb2-4793-b7c6-d8671bf7e9b4-739"
       data-name="Path 680"
       d="m 93.282492,98.669975 a 0.1887015,0.1887015 0 0 0 0,0.377403 h 10.987898 a 0.1887015,0.1887015 0 1 0 0,-0.377403 z"
       fill="#cccccc"
       style="stroke-width:0.264582" />
    <path
       id="e27373f7-fd0b-426a-8828-0829b084b689-740"
       data-name="Path 680"
       d="m 93.282492,100.17127 a 0.18870125,0.18870125 0 0 0 0,0.3774 h 10.987898 a 0.18870125,0.18870125 0 1 0 0,-0.3774 z"
       fill="#cccccc"
       style="stroke-width:0.264582" />
    <path
       id="b4c6c7b3-e22e-4fba-a4f6-80d19d07dbd3-741"
       data-name="Path 680"
       d="m 93.282492,101.67256 a 0.18870089,0.18870089 0 0 0 0,0.3774 h 10.987898 a 0.18870089,0.18870089 0 1 0 0,-0.3774 z"
       fill="#cccccc"
       style="stroke-width:0.264582" />
    <path
       id="ebf0dc46-a6ad-47cb-a3de-ddb71e9e94e3-742"
       data-name="Path 680"
       d="m 93.282492,103.17385 a 0.18870125,0.18870125 0 0 0 0,0.3774 h 10.987898 a 0.18870125,0.18870125 0 1 0 0,-0.3774 z"
       fill="#cccccc"
       style="stroke-width:0.264582" />
    <path
       d="m 129.52999,103.63204 h -16.63564 a 0.41984215,0.41984215 0 0 1 -0.41938,-0.41939 v -9.785661 a 0.41984215,0.41984215 0 0 1 0.41938,-0.419385 h 16.63564 a 0.41984215,0.41984215 0 0 1 0.41938,0.419385 v 9.785661 a 0.41984215,0.41984215 0 0 1 -0.41938,0.41939 z"
       fill="#f1f1f1"
       id="path3679"
       style="stroke-width:0.264582" />
    <path
       d="m 131.71842,105.87023 h -16.63563 a 0.41984215,0.41984215 0 0 1 -0.41939,-0.41938 v -9.785669 a 0.41984215,0.41984215 0 0 1 0.41939,-0.419387 h 16.63563 a 0.41984215,0.41984215 0 0 1 0.41938,0.419387 v 9.785669 a 0.41984215,0.41984215 0 0 1 -0.41938,0.41938 z"
       fill="#ffffff"
       id="path3681"
       style="stroke-width:0.264582" />
    <path
       d="m 131.7184,106.01295 h -16.63561 a 0.56274151,0.56274151 0 0 1 -0.5621,-0.56211 v -9.785638 a 0.56274208,0.56274208 0 0 1 0.5621,-0.562112 h 16.63561 a 0.56274496,0.56274496 0 0 1 0.56212,0.562112 v 9.785638 a 0.56274439,0.56274439 0 0 1 -0.56212,0.56211 z M 115.08279,95.388514 a 0.27700055,0.27700055 0 0 0 -0.27668,0.276688 v 9.785638 a 0.27700055,0.27700055 0 0 0 0.27668,0.27669 h 16.63561 a 0.27701037,0.27701037 0 0 0 0.27669,-0.27669 v -9.785638 a 0.27701037,0.27701037 0 0 0 -0.27669,-0.276688 z"
       fill="#3f3d56"
       id="path3683"
       style="stroke-width:0.264582" />
    <circle
       cx="123.37817"
       cy="101.8589"
       r="1.4435502"
       fill="#ff6583"
       id="circle3685"
       style="stroke-width:0.264582" />
    <path
       d="m 126.16296,100.47013 a 0.92957015,0.92957015 0 0 0 -1.32949,-0.0237 l -4.68171,4.68173 c -0.59971,0.60251 -1.22575,-0.31902 -1.6258,-0.69063 -0.962,-0.95144 -2.00108,0.83258 -2.64771,1.34347 h 15.04471 v -0.19152 z"
       fill="#6c63ff"
       id="path3687"
       style="fill:#84429e;fill-opacity:1;stroke-width:0.264582" />
  </g>
</svg>
