<svg xmlns="http://www.w3.org/2000/svg" xmlns:xlink="http://www.w3.org/1999/xlink" width="500" zoomAndPan="magnify" viewBox="0 0 375 374.999991" height="500" preserveAspectRatio="xMidYMid meet" version="1.0"><path fill="#006480" d="M 101.828125 374.871094 C 100.324219 374.863281 98.867188 374.613281 97.449219 374.125 C 96.027344 373.632812 94.726562 372.925781 93.542969 372.007812 C 92.894531 371.527344 92.296875 370.992188 91.746094 370.402344 C 91.195312 369.816406 90.699219 369.183594 90.265625 368.503906 C 89.828125 367.828125 89.457031 367.117188 89.148438 366.371094 C 88.839844 365.625 88.601562 364.859375 88.433594 364.070312 C 88.261719 363.285156 88.164062 362.488281 88.140625 361.683594 C 88.117188 360.875 88.164062 360.074219 88.28125 359.277344 C 88.402344 358.480469 88.59375 357.703125 88.851562 356.9375 C 89.113281 356.175781 89.441406 355.441406 89.832031 354.738281 L 89.898438 354.625 L 171.1875 210.691406 L 93.679688 210.691406 C 92.34375 210.6875 91.039062 210.492188 89.761719 210.105469 C 88.484375 209.71875 87.289062 209.15625 86.175781 208.417969 C 85.066406 207.679688 84.082031 206.792969 83.230469 205.765625 C 82.378906 204.738281 81.695312 203.609375 81.175781 202.378906 C 80.65625 201.148438 80.324219 199.871094 80.183594 198.542969 C 80.039062 197.214844 80.089844 195.894531 80.335938 194.582031 C 80.582031 193.273438 81.015625 192.023438 81.628906 190.835938 C 82.242188 189.652344 83.011719 188.578125 83.941406 187.621094 L 249.074219 5.640625 L 249.308594 5.386719 C 249.863281 4.832031 250.464844 4.328125 251.109375 3.878906 C 251.753906 3.425781 252.429688 3.035156 253.140625 2.699219 C 253.855469 2.367188 254.589844 2.097656 255.347656 1.890625 C 256.105469 1.683594 256.878906 1.542969 257.660156 1.472656 C 258.445312 1.398438 259.226562 1.394531 260.011719 1.457031 C 260.792969 1.519531 261.566406 1.652344 262.328125 1.847656 C 263.089844 2.046875 263.828125 2.308594 264.542969 2.632812 C 265.257812 2.957031 265.941406 3.34375 266.589844 3.785156 C 267.238281 4.230469 267.84375 4.726562 268.410156 5.277344 C 268.972656 5.824219 269.484375 6.417969 269.941406 7.054688 C 270.402344 7.691406 270.804688 8.367188 271.148438 9.074219 C 271.492188 9.78125 271.773438 10.511719 271.988281 11.265625 C 272.203125 12.023438 272.355469 12.792969 272.4375 13.574219 C 272.519531 14.355469 272.535156 15.140625 272.484375 15.921875 C 272.429688 16.707031 272.3125 17.480469 272.125 18.246094 C 271.9375 19.007812 271.6875 19.75 271.371094 20.472656 L 271.273438 20.683594 L 207.066406 154.960938 L 275.265625 154.960938 C 276.199219 154.964844 277.128906 155.03125 278.054688 155.167969 C 278.976562 155.304688 279.886719 155.507812 280.78125 155.78125 C 281.675781 156.050781 282.546875 156.382812 283.394531 156.78125 C 284.238281 157.179688 285.050781 157.636719 285.828125 158.152344 C 286.609375 158.667969 287.347656 159.238281 288.042969 159.863281 C 288.738281 160.488281 289.382812 161.15625 289.980469 161.875 C 290.578125 162.597656 291.117188 163.355469 291.605469 164.152344 C 292.089844 164.949219 292.515625 165.78125 292.878906 166.640625 C 293.246094 167.5 293.542969 168.382812 293.78125 169.289062 C 294.015625 170.191406 294.183594 171.109375 294.285156 172.039062 C 294.386719 172.964844 294.417969 173.898438 294.382812 174.832031 C 294.347656 175.765625 294.246094 176.691406 294.074219 177.609375 C 293.90625 178.53125 293.667969 179.429688 293.367188 180.316406 C 293.0625 181.199219 292.695312 182.054688 292.269531 182.886719 C 291.839844 183.71875 291.355469 184.511719 290.808594 185.273438 C 290.265625 186.03125 289.667969 186.746094 289.019531 187.417969 L 111.367188 370.796875 L 111.164062 371 C 109.917969 372.226562 108.488281 373.171875 106.871094 373.839844 C 105.257812 374.511719 103.574219 374.855469 101.828125 374.871094 Z M 101.460938 360.9375 Z M 94.613281 196.667969 L 171.890625 196.667969 C 172.476562 196.667969 173.0625 196.707031 173.640625 196.78125 C 174.222656 196.859375 174.796875 196.972656 175.363281 197.121094 C 175.929688 197.269531 176.484375 197.457031 177.027344 197.679688 C 177.570312 197.898438 178.09375 198.15625 178.605469 198.445312 C 179.113281 198.734375 179.601562 199.054688 180.070312 199.410156 C 180.539062 199.761719 180.980469 200.140625 181.398438 200.550781 C 181.816406 200.960938 182.207031 201.398438 182.570312 201.859375 C 182.933594 202.316406 183.265625 202.800781 183.566406 203.304688 C 183.863281 203.804688 184.132812 204.328125 184.363281 204.863281 C 184.597656 205.402344 184.792969 205.953125 184.957031 206.515625 C 185.117188 207.078125 185.242188 207.648438 185.328125 208.230469 C 185.417969 208.808594 185.46875 209.390625 185.480469 209.976562 C 185.492188 210.5625 185.46875 211.148438 185.40625 211.730469 C 185.34375 212.3125 185.242188 212.886719 185.105469 213.457031 C 184.96875 214.027344 184.792969 214.585938 184.582031 215.132812 C 184.375 215.679688 184.128906 216.210938 183.851562 216.726562 L 183.785156 216.839844 L 103.734375 358.59375 L 278.941406 177.683594 C 279.292969 177.320312 279.585938 176.914062 279.816406 176.464844 C 280.050781 176.015625 280.210938 175.542969 280.304688 175.046875 C 280.398438 174.550781 280.417969 174.054688 280.363281 173.550781 C 280.308594 173.046875 280.183594 172.566406 279.984375 172.101562 C 279.789062 171.636719 279.527344 171.207031 279.207031 170.820312 C 278.882812 170.429688 278.511719 170.097656 278.089844 169.820312 C 277.667969 169.539062 277.214844 169.328125 276.730469 169.183594 C 276.25 169.039062 275.753906 168.964844 275.25 168.96875 L 206.410156 168.96875 C 205.847656 168.96875 205.285156 168.933594 204.726562 168.863281 C 204.167969 168.792969 203.617188 168.691406 203.070312 168.550781 C 202.523438 168.414062 201.992188 168.242188 201.464844 168.039062 C 200.941406 167.832031 200.433594 167.597656 199.9375 167.328125 C 199.441406 167.0625 198.964844 166.761719 198.507812 166.4375 C 198.050781 166.109375 197.613281 165.753906 197.199219 165.375 C 196.785156 164.992188 196.394531 164.585938 196.03125 164.160156 C 195.667969 163.730469 195.332031 163.277344 195.023438 162.808594 C 194.714844 162.335938 194.4375 161.847656 194.191406 161.34375 C 193.945312 160.835938 193.730469 160.316406 193.546875 159.785156 C 193.363281 159.253906 193.214844 158.710938 193.097656 158.160156 C 192.984375 157.609375 192.902344 157.054688 192.855469 156.492188 C 192.808594 155.933594 192.796875 155.371094 192.820312 154.808594 C 192.84375 154.246094 192.902344 153.6875 192.996094 153.132812 C 193.085938 152.578125 193.214844 152.027344 193.375 151.488281 C 193.535156 150.949219 193.726562 150.421875 193.953125 149.90625 L 194.050781 149.695312 L 257.339844 17.378906 Z M 264.960938 17.65625 Z M 264.960938 17.65625 " fill-opacity="1" fill-rule="nonzero"/></svg>