<?xml version="1.0" encoding="UTF-8"?>
<svg width="962.03" height="1060.4" data-name="Layer 1" version="1.1" viewBox="0 0 962.03 1060.4" xmlns="http://www.w3.org/2000/svg" xmlns:cc="http://creativecommons.org/ns#" xmlns:dc="http://purl.org/dc/elements/1.1/" xmlns:rdf="http://www.w3.org/1999/02/22-rdf-syntax-ns#">
 <metadata>
  <rdf:RDF>
   <cc:Work rdf:about="">
    <dc:format>image/svg+xml</dc:format>
    <dc:type rdf:resource="http://purl.org/dc/dcmitype/StillImage"/>
    <dc:title/>
   </cc:Work>
  </rdf:RDF>
 </metadata>
 <path d="m703.7 0a171.54 489.87 77.447 0 0-103.8 5.4551 171.54 489.87 77.447 0 0-584.57 239.18 171.54 489.87 77.447 0 0 343.98 146.76 171.54 489.87 77.447 0 0 122.18-18.125 173.3 609.37 37.276 0 0-9.5098 11.617 173.3 609.37 37.276 0 0-286.04 628.39 173.3 609.37 37.276 0 0 478.16-312.07 173.3 609.37 37.276 0 0 286.04-628.39 173.3 609.37 37.276 0 0-5.6621-7.7578 171.54 489.87 77.447 0 0-240.78-65.059z" fill="#d1a9de" stop-color="#000000" stroke-width="6.9677"/>
 <path d="m873.76 546.61h-217.35a29.859 29.859 0 0 1-29.826-29.825v-342.84a29.859 29.859 0 0 1 29.826-29.826h217.35a29.859 29.859 0 0 1 29.826 29.826v342.84a29.859 29.859 0 0 1-29.826 29.825z" fill="#e6e6e6"/>
 <path d="m877.37 161.91h-221.36a9.3483 9.3483 0 0 0-9.3368 9.3368v347.31a9.3513 9.3513 0 0 0 9.3368 9.3368h221.36a9.3483 9.3483 0 0 0 9.3368-9.3368v-347.31a9.3483 9.3483 0 0 0-9.3368-9.3368z" fill="#fff"/>
 <g fill="#e6e6e6">
  <path d="m661.73 144.12a2.2844 2.2844 0 0 1 2.2817-2.2817h15.516a2.2817 2.2817 0 1 1 0 4.5634h-15.516a2.2844 2.2844 0 0 1-2.2817-2.2817z"/>
  <path d="m687.28 144.12a2.2844 2.2844 0 0 1 2.2817-2.2817h15.516a2.2817 2.2817 0 1 1 0 4.5634h-15.516a2.2844 2.2844 0 0 1-2.2817-2.2817z"/>
  <path d="m840.61 144.12a2.2844 2.2844 0 0 1 2.2817-2.2817h15.516a2.2817 2.2817 0 0 1 0 4.5634h-15.516a2.2844 2.2844 0 0 1-2.2817-2.2817z"/>
 </g>
 <path d="m797.36 520.74c0 2.4004-0.0456 4.7916-0.15514 7.1555h-141.2a9.3513 9.3513 0 0 1-9.3368-9.3368v-174.82a179.29 179.29 0 0 1 150.69 177z" fill="#f2f2f2"/>
 <rect x="735.57" y="251.17" width="61.339" height="14.092" rx="4.339" fill="#8a3fa2"/>
 <rect x="702.1" y="279.35" width="128.28" height="14.092" rx="4.339" fill="#e6e6e6"/>
 <rect x="702.1" y="307.54" width="128.28" height="14.092" rx="4.339" fill="#e6e6e6"/>
 <path d="m805.56 504.16a3.3479 3.3479 0 0 1-2.4264-5.8027l0.2294-0.912q-0.0453-0.10953-0.0912-0.21892a8.9906 8.9906 0 0 0-16.584 0.0616c-2.7124 6.5328-6.1658 13.077-7.0161 19.984a26.597 26.597 0 0 0 0.4669 9.1474 106.63 106.63 0 0 1-9.7001-44.289 102.92 102.92 0 0 1 0.63842-11.482q0.52887-4.6881 1.4675-9.3095a107.87 107.87 0 0 1 21.392-45.718 28.707 28.707 0 0 0 11.939-12.387 21.898 21.898 0 0 0 1.9915-5.984c-0.58122 0.0762-1.172 0.12388-1.7532 0.162-0.18108 9e-3 -0.37163 0.019-0.5527 0.0286l-0.0683 3e-3a3.317 3.317 0 0 1-2.7242-5.404q0.37644-0.46328 0.75335-0.92609c0.38118-0.47646 0.77185-0.94336 1.153-1.4198a1.6514 1.6514 0 0 0 0.12387-0.143c0.43839-0.54314 0.87662-1.0767 1.315-1.6199a9.5916 9.5916 0 0 0-3.1444-3.0395c-4.3927-2.5727-10.453-0.79089-13.626 3.1825-3.1825 3.9734-3.7828 9.5477-2.6776 14.512a38.439 38.439 0 0 0 5.317 11.854c-0.23826 0.305-0.486 0.60034-0.72421 0.90529a108.57 108.57 0 0 0-11.332 17.952 45.132 45.132 0 0 0-2.6944-20.963c-2.579-6.2217-7.4131-11.462-11.67-16.84-5.1133-6.4606-15.599-3.641-16.499 4.5488q-0.0131 0.11893-0.0255 0.23781 0.94846 0.53507 1.8568 1.1358a4.5412 4.5412 0 0 1-1.8309 8.2641l-0.0926 0.0143a45.184 45.184 0 0 0 1.191 6.7558 46.523 46.523 0 0 0 23.164 29.157c0.37163 0.19055 0.73377 0.3811 1.1054 0.56218a110.81 110.81 0 0 0-5.9649 28.071 105.1 105.1 0 0 0 0.0762 16.97l-0.0286-0.20012a27.773 27.773 0 0 0-9.481-16.037c-7.2961-5.9935-17.604-8.2006-25.475-13.018a5.2122 5.2122 0 0 0-7.983 5.0706q0.0158 0.10518 0.0322 0.21036a30.508 30.508 0 0 1 3.4207 1.6484q0.94845 0.53519 1.8568 1.1358a4.5412 4.5412 0 0 1-1.8309 8.2642l-0.0927 0.0142c-0.0667 0.01-0.12388 0.0191-0.19048 0.0287a45.224 45.224 0 0 0 8.3184 13.026 46.564 46.564 0 0 0 33.769 14.817h0.01a110.78 110.78 0 0 0 7.4419 21.725h26.585c0.0954-0.29539 0.18107-0.60033 0.26687-0.89572a30.205 30.205 0 0 1-7.3561-0.43823c1.9724-2.4203 3.9448-4.8597 5.9173-7.2799a1.6524 1.6524 0 0 0 0.12388-0.14291c1.0005-1.2387 2.0105-2.4679 3.011-3.7066l5.4e-4 -2e-3a44.244 44.244 0 0 0-1.2964-11.271zm-30.443-59.887 0.014-0.0189-0.014 0.0379zm-5.8886 53.084-0.22871-0.51447c0.01-0.37163 0.01-0.74325 0-1.1244 0-0.10491-0.019-0.20967-0.019-0.31451 0.0857 0.65746 0.16195 1.315 0.25723 1.9724z" fill="#b2e6bf"/>
 <path d="m866.3 192.58h-199.23a1.6492 1.6492 0 0 1 0-3.2977h199.23a1.6492 1.6492 0 0 1 0 3.2977z" fill="#cacaca"/>
 <g fill="#3f3d56">
  <ellipse cx="677.7" cy="179.56" rx="4.8462" ry="4.9542"/>
  <ellipse cx="694.44" cy="179.56" rx="4.8462" ry="4.9542"/>
  <ellipse cx="711.18" cy="179.56" rx="4.8462" ry="4.9542"/>
  <path d="m858.51 176.52h-10.845a0.82133 0.82133 0 0 0 0 1.6423h10.845a0.82133 0.82133 0 0 0 0-1.6423z"/>
  <path d="m858.51 179.6h-10.845a0.82133 0.82133 0 0 0 0 1.6423h10.845a0.82133 0.82133 0 0 0 0-1.6423z"/>
  <path d="m858.51 182.68h-10.845a0.82133 0.82133 0 0 0 0 1.6423h10.845a0.82133 0.82133 0 0 0 0-1.6423z"/>
 </g>
 <path d="m535.26 343.88h-115.51a6.1631 6.1631 0 0 0-6.1538 6.1696v182.47h127.83v-182.47a6.1664 6.1664 0 0 0-6.1696-6.1696zm-57.366 103.68a13.704 13.704 0 0 1-13.64-13.64v-21.047a13.64 13.64 0 0 1 27.28 0v21.047a13.704 13.704 0 0 1-13.64 13.64z" fill="#e6e6e6"/>
 <path d="m413.2 526.68v17.605a3.4487 3.4487 0 0 0 3.4417 3.4416h121.74a3.459 3.459 0 0 0 3.4416-3.4416v-17.605z" fill="#ccc"/>
 <path d="m726.54 59.11h-493.76a16.029 16.029 0 0 0-16.003 16.003v333.19a16.018 16.018 0 0 0 16.003 16.003h493.76a16.018 16.018 0 0 0 16.003-16.003v-333.19a16.029 16.029 0 0 0-16.003-16.003z" fill="#e6e6e6"/>
 <path d="m722.41 70.669h-485.51a8.577 8.577 0 0 0-8.5584 8.5762v324.93a8.5731 8.5731 0 0 0 8.5584 8.5584h485.51a8.5731 8.5731 0 0 0 8.5584-8.5584v-324.93a8.577 8.577 0 0 0-8.5584-8.5762z" fill="#fff"/>
 <path d="m730.97 79.245v324.93a8.5731 8.5731 0 0 1-8.5584 8.5584h-171.2a210.09 210.09 0 0 1-45.834-61.67q-1.1211-2.242-2.1352-4.5372a208.23 208.23 0 0 1-18.505-71.225c-0.12456-1.5123-0.23132-3.0248-0.30245-4.555-0.23131-3.9144-0.33807-7.8822-0.33807-11.868a209.13 209.13 0 0 1 14.75-77.417c0.58719-1.5302 1.2099-3.0426 1.8505-4.555a210.67 210.67 0 0 1 100.26-106.24h121.45a8.577 8.577 0 0 1 8.5584 8.5762z" fill="#8a3fa2"/>
 <path d="m698.01 115.44h-454.29a1.807 1.807 0 0 1 0-3.6132h454.29a1.807 1.807 0 0 1 0 3.6132z" fill="#cacaca"/>
 <g fill="#3f3d56">
  <ellipse cx="274.64" cy="91.776" rx="10.588" ry="10.823"/>
  <ellipse cx="311.21" cy="91.776" rx="10.588" ry="10.823"/>
  <ellipse cx="347.79" cy="91.776" rx="10.588" ry="10.823"/>
 </g>
 <g fill="#f9f9f9">
  <path d="m675.99 83.636h-25.981a1.9676 1.9676 0 0 0 0 3.9344h25.981a1.9676 1.9676 0 0 0 0-3.9344z"/>
  <path d="m675.99 91.02h-25.981a1.9676 1.9676 0 0 0 0 3.9344h25.981a1.9676 1.9676 0 0 0 0-3.9344z"/>
  <path d="m675.99 98.395h-25.981a1.9676 1.9676 0 0 0 0 3.9344h25.981a1.9676 1.9676 0 0 0 0-3.9344z"/>
 </g>
 <rect x="314.95" y="220.98" width="72.207" height="15.441" rx="4.339" fill="#8a3fa2"/>
 <rect x="278.27" y="251.86" width="145.55" height="15.441" rx="4.339" fill="#e6e6e6"/>
 <rect x="278.27" y="282.74" width="145.55" height="15.441" rx="4.339" fill="#e6e6e6"/>
 <path d="m290.15 394.11a53.05 53.05 0 0 1-3.3451 18.629h-49.909a8.5731 8.5731 0 0 1-8.5584-8.5584v-62.773a52.716 52.716 0 0 1 8.4338-0.67613 53.375 53.375 0 0 1 53.379 53.379z" fill="#6c63ff"/>
 <path d="m731.42 181.46v-4.555h-76.349v-52.791h-4.5373v52.791h-87.505v-52.791h-4.5372v52.791h-57.791c-0.64062 1.5124-1.2633 3.0248-1.8505 4.555h59.642v89.285h-74.054c0.0711 1.5302 0.17789 3.0426 0.30245 4.555h73.751v71.225h-55.247q1.0142 2.2952 2.1352 4.5372h53.112v59.873h4.5372v-59.873h87.505v59.873h4.5373v-59.873h76.349v-4.5372h-76.349v-7e-5a71.225 71.225 0 0 1 71.225-71.225h5.1243v-4.555h-76.349v-89.284zm-80.886 165.06h-87.505v-71.225h87.505zm0-75.78h-87.505v-1.7794a87.505 87.505 0 0 1 87.505-87.505h9e-5z" opacity=".2"/>
 <path d="m669.94 379.03a4.7547 4.7547 0 0 1-3.446-8.2411c0.11989-0.47653 0.2059-0.81872 0.32579-1.2953q-0.0643-0.15557-0.12945-0.31092c-4.3774-10.438-19.213-10.366-23.553 0.0875-3.8522 9.2779-8.7568 18.572-9.9644 28.382a37.774 37.774 0 0 0 0.66308 12.991 151.44 151.44 0 0 1-13.776-62.9 146.17 146.17 0 0 1 0.90669-16.307q0.75112-6.6581 2.0841-13.221a153.2 153.2 0 0 1 30.381-64.93 40.771 40.771 0 0 0 16.956-17.592 31.1 31.1 0 0 0 2.8284-8.4985c-0.82546 0.10827-1.6645 0.17593-2.49 0.23-0.25716 0.0135-0.52779 0.027-0.785 0.0406l-0.097 4e-3a4.7109 4.7109 0 0 1-3.869-7.6748q0.53463-0.658 1.0699-1.3152c0.54136-0.67668 1.0962-1.3398 1.6374-2.0164a2.3465 2.3465 0 0 0 0.17593-0.20308c0.6226-0.77138 1.245-1.5292 1.8676-2.3006a13.622 13.622 0 0 0-4.4658-4.3168c-6.2386-3.6538-14.845-1.1232-19.352 4.5199-4.5199 5.643-5.3724 13.56-3.8027 20.61 1.3399 6.0356 4.2628 11.57 7.5513 16.835-0.33839 0.43309-0.69025 0.85261-1.0285 1.2857a154.19 154.19 0 0 0-16.093 25.496 64.098 64.098 0 0 0-3.8267-29.772c-3.6628-8.8362-10.528-16.278-16.574-23.917-7.262-9.1754-22.153-5.171-23.433 6.4602q-0.0186 0.16892-0.0363 0.33774 1.347 0.75992 2.6371 1.6131a6.4495 6.4495 0 0 1-2.6003 11.737l-0.13151 0.0203a64.174 64.174 0 0 0 1.6915 9.5947 66.072 66.072 0 0 0 32.898 41.41c0.52779 0.27063 1.0421 0.54126 1.5699 0.79842a157.38 157.38 0 0 0-8.4715 39.867 149.27 149.27 0 0 0 0.10827 24.102l-0.0406-0.28421a39.444 39.444 0 0 0-13.465-22.775c-10.362-8.5121-25.002-11.647-36.181-18.489-5.3812-3.2936-12.277 0.96262-11.338 7.2014q0.0225 0.14937 0.0457 0.29875a43.328 43.328 0 0 1 4.8582 2.3411q1.347 0.76008 2.6371 1.6131a6.4496 6.4496 0 0 1-2.6003 11.737l-0.13162 0.0202c-0.0947 0.0136-0.17593 0.0272-0.27052 0.0407a64.227 64.227 0 0 0 11.814 18.499 66.131 66.131 0 0 0 47.96 21.043h0.0136a157.34 157.34 0 0 0 10.569 30.854h37.756c0.13542-0.41952 0.25716-0.85261 0.379-1.2721a42.897 42.897 0 0 1-10.447-0.62238c2.8013-3.4374 5.6025-6.9018 8.4038-10.339a2.3441 2.3441 0 0 0 0.17593-0.203c1.4209-1.7592 2.8554-3.5049 4.2763-5.2641l7.6e-4 -2e-3a62.836 62.836 0 0 0-1.8412-16.007zm-43.236-85.052 0.0199-0.0268-0.0199 0.0539zm-8.3631 75.39-0.32482-0.73065c0.0136-0.5278 0.0136-1.0556 0-1.5968 0-0.149-0.027-0.29778-0.027-0.44667 0.12174 0.93373 0.23 1.8676 0.36533 2.8013z" fill="#b2e6bf"/>
 <path d="m333.74 290.72v-50.743a29.369 29.369 0 0 0-29.369-29.369h-107.51a29.369 29.369 0 0 0-29.369 29.369v278.38a29.369 29.369 0 0 0 29.369 29.369h107.51a29.369 29.369 0 0 0 29.369-29.369v-191.52a1.8523 1.8523 0 0 0 1.8523-1.8523v-32.415a1.8523 1.8523 0 0 0-1.8523-1.8523z" fill="#e6e6e6"/>
 <path d="m327.49 240.18v277.98a21.919 21.919 0 0 1-21.69 21.92 1.9259 1.9259 0 0 1-0.24006 0.01h-108.03a21.932 21.932 0 0 1-21.93-21.93v-277.98a21.932 21.932 0 0 1 21.93-21.93h13.11a10.427 10.427 0 0 0 9.65 14.36h61.59a10.435 10.435 0 0 0 9.64-14.36h14.04a21.932 21.932 0 0 1 21.93 21.93z" fill="#fff"/>
 <path d="m306.07 531.51q0 4.32-0.26995 8.57a1.9259 1.9259 0 0 1-0.24006 0.01h-108.03a21.932 21.932 0 0 1-21.93-21.93v-123.88a137.39 137.39 0 0 1 130.47 137.23z" fill="#f2f2f2"/>
 <path d="m168.09 319.11a2.503 2.503 0 0 1-2.5-2.5v-17a2.5 2.5 0 0 1 5 0v17a2.5029 2.5029 0 0 1-2.5 2.5z" fill="#e6e6e6"/>
 <rect x="233.94" y="305.54" width="35.207" height="15.441" rx="4.339" fill="#8a3fa2"/>
 <rect x="197.27" y="336.42" width="108.55" height="15.441" rx="4.339" fill="#e6e6e6"/>
 <rect x="197.27" y="367.3" width="108.55" height="15.441" rx="4.339" fill="#e6e6e6"/>
 <path d="m277.45 524.27a2.2312 2.2312 0 0 1-1.6171-3.8673l0.15289-0.60782q-0.0302-0.073-0.0608-0.14591a5.9918 5.9918 0 0 0-11.053 0.0411c-1.8077 4.3538-4.1093 8.7151-4.676 13.319a17.726 17.726 0 0 0 0.31117 6.0964 71.068 71.068 0 0 1-6.4648-29.517 68.595 68.595 0 0 1 0.42548-7.6523q0.35248-3.1244 0.978-6.2044a71.891 71.891 0 0 1 14.257-30.469 19.132 19.132 0 0 0 7.9571-8.2556 14.595 14.595 0 0 0 1.3272-3.9881c-0.38736 0.0508-0.7811 0.0826-1.1685 0.10794-0.12067 6e-3 -0.24767 0.0127-0.36835 0.0191l-0.0455 2e-3a2.2106 2.2106 0 0 1-1.8156-3.6015q0.25088-0.30874 0.50207-0.61719c0.25405-0.31755 0.51441-0.62872 0.7684-0.94621a1.1009 1.1009 0 0 0 0.0826-0.0953c0.29217-0.362 0.58423-0.7176 0.87639-1.0796a6.3924 6.3924 0 0 0-2.0956-2.0257c-2.9276-1.7146-6.9664-0.5271-9.0812 2.121-2.121 2.6481-2.5211 6.3632-1.7845 9.6717a25.618 25.618 0 0 0 3.5436 7.8999c-0.15879 0.20323-0.32391 0.4001-0.48266 0.60334a72.355 72.355 0 0 0-7.5521 11.964 30.079 30.079 0 0 0-1.7958-13.971c-1.7188-4.1465-4.9406-7.6387-7.7776-11.223a6.1738 6.1738 0 0 0-10.996 3.0316q-9e-3 0.0793-0.017 0.15849 0.6321 0.35661 1.2375 0.757a3.0265 3.0265 0 0 1-1.2202 5.5077l-0.0617 0.01a30.115 30.115 0 0 0 0.79378 4.5025 31.006 31.006 0 0 0 15.438 19.432c0.24767 0.127 0.489 0.254 0.7367 0.37467a73.853 73.853 0 0 0-3.9754 18.708 70.049 70.049 0 0 0 0.0508 11.31l-0.0191-0.13337a18.51 18.51 0 0 0-6.3187-10.688c-4.8626-3.9944-11.732-5.4654-16.978-8.6761a3.4737 3.4737 0 0 0-5.3204 3.3794l0.0215 0.14019a20.333 20.333 0 0 1 2.2798 1.0986q0.6321 0.35668 1.2375 0.757a3.0266 3.0266 0 0 1-1.2202 5.5078l-0.0618 9e-3c-0.0444 6e-3 -0.0826 0.0127-0.127 0.0191a30.14 30.14 0 0 0 5.5439 8.681 31.033 31.033 0 0 0 22.506 9.8749h6e-3a73.831 73.831 0 0 0 4.9597 14.479h17.718c0.0636-0.19686 0.12068-0.4001 0.17786-0.597a20.13 20.13 0 0 1-4.9026-0.29207c1.3146-1.613 2.6291-3.2388 3.9436-4.8518a1.1005 1.1005 0 0 0 0.0826-0.0952c0.66678-0.82553 1.3399-1.6447 2.0067-2.4703l3.6e-4 -1e-3a29.487 29.487 0 0 0-0.864-7.5116zm-20.289-39.912 9e-3 -0.0126-9e-3 0.0253zm-3.9245 35.378-0.15243-0.34287c6e-3 -0.24768 6e-3 -0.49535 0-0.74935 0-0.0699-0.0127-0.13974-0.0127-0.2096 0.0571 0.43817 0.10793 0.87639 0.17143 1.3146z" fill="#b2e6bf"/>
 <path d="m167.59 286.11a2.503 2.503 0 0 1-2.5-2.5v-17a2.5 2.5 0 0 1 5 0v17a2.5029 2.5029 0 0 1-2.5 2.5z" fill="#e6e6e6"/>
 <path d="m234.09 221.11a2.503 2.503 0 0 1 2.5-2.5h17a2.5 2.5 0 0 1 0 5h-17a2.503 2.503 0 0 1-2.5-2.5z" fill="#fff"/>
 <path d="m168.09 348.11a2.503 2.503 0 0 1-2.5-2.5v-17a2.5 2.5 0 0 1 5 0v17a2.5029 2.5029 0 0 1-2.5 2.5z" fill="#e6e6e6"/>
 <circle cx="263.09" cy="221.11" r="2.5" fill="#fff"/>
 <path d="m429.88 271.84-4.5118 0.96682a25.975 25.975 0 0 0-0.70141-5.6018 16.821 16.821 0 0 1-2.5403 6.2938l-25.876 5.526-24.843-26.218c-0.038-13.109 7.2415-23.071 20.293-23.071 0.78673 0 1.6019 0.0379 2.4265 0.11374a27.604 27.604 0 0 1 31.601 21.696c9.251 9.1088 5.8956 14.464 4.1516 20.293z" fill="#2f2e41"/>
 <circle cx="405.59" cy="254.6" r="18.114" fill="#ffb6b6"/>
 <path d="m427.31 242.69c-1.4502 1.8862-6.4454 3.5544-12.379 4.9004 9e-3 -0.12317 9e-3 -0.24639 9e-3 -0.36962a25.974 25.974 0 0 0-0.7014-5.6018 16.821 16.821 0 0 1-2.5403 6.2938c-0.0948 0.14221-0.18952 0.28435-0.29382 0.42655-5.09 1.0047-10.474 1.782-14.692 2.3033 2.9004 10.445 14.019 19.014 12.815 25.365l-32.578 6.6539a25.539 25.539 0 0 0-0.62556-7.8672 16.934 16.934 0 0 1-4.7203 8.9572l-2.7677 0.56869-0.82463-4.0663c-7.1468-17.166 2.8151-34.739 19.137-43.829a19.84 19.84 0 0 1 12.569-8.4359l4.0663-0.83412a19.934 19.934 0 0 1 23.526 15.535z" fill="#2f2e41"/>
 <path d="m511.79 584.45 0.48173-10.832a34.983 34.983 0 0 1 16.317-4.1306c-7.837 6.4073-6.8576 18.758-12.171 27.375a21.043 21.043 0 0 1-15.431 9.7241l-6.5583 4.0154a35.261 35.261 0 0 1 7.4321-28.573 34.06 34.06 0 0 1 6.2596-5.8162c1.5707 4.1417 3.6691 8.2374 3.6691 8.2374z" fill="#b2e6bf"/>
 <path d="m527.69 610.85h-228.38a1.1907 1.1907 0 0 1 0-2.3814h228.38a1.1907 1.1907 0 1 1 0 2.3814z" fill="#cacaca"/>
 <path d="m465.56 261.92a10.141 10.141 0 0 0 0.32795 1.5628l-30.626 36.67-11.438-1.9709-5.2308 16.874 19.91 5.457a7.7071 7.7071 0 0 0 8.6031-3.397l28.464-46.307a10.113 10.113 0 1 0-10.01-8.8888z" fill="#ffb6b6" stroke-width=".7574"/>
 <path d="m433.91 298.11a4.3306 4.3306 0 0 0-3.0039-2.002l-21.487-3.4266a12.04 12.04 0 0 0-7.3087 22.944l19.632 9.5446a4.3353 4.3353 0 0 0 6.0299-2.5952l6.5846-20.882a4.3304 4.3304 0 0 0-0.44664-3.5826z" fill="#3f3d56" stroke-width=".7574"/>
 <polygon transform="matrix(-.7574 0 0 .7574 840.56 116.08)" points="538.49 585.23 538.49 632.52 526.23 632.52 520.4 585.23" fill="#ffb6b6"/>
 <path d="m430.34 604.15 29.941-7.5e-4v-0.37871a11.654 11.654 0 0 0-11.654-11.654h-7.6e-4l-18.287 7.6e-4z" fill="#2f2e41" stroke-width=".7574"/>
 <polygon transform="matrix(-.7574 0 0 .7574 840.56 116.08)" points="666.49 585.23 666.49 632.52 654.23 632.52 648.4 585.23" fill="#ffb6b6"/>
 <g stroke-width=".7574">
  <path d="m333.39 604.15 29.941-7.5e-4v-0.37871a11.654 11.654 0 0 0-11.654-11.654h-7.6e-4l-18.287 7.6e-4z" fill="#2f2e41"/>
  <path d="m429.08 376.98-40.238-11.628c-14.658 10.397-24.779 31.236-21.501 58.198 5.2822 43.451-25.296 99.319-38.484 155.93l22.804 0.71639 49.935-119.5 29.276 121.99 20.371 0.63994-13.622-167.97z" fill="#2f2e41"/>
  <path d="m432.34 343.05c4.6008-8.0761 6.874-17.884 2.8697-26.272-1.0083-2.112-3.7577-4.1084-5.1968-5.954l-16.083-23.979-18.16-2.9214c-15.716 13.181-2.2904 58.212-15.166 87.751l53.776 28.781c-3.8438-14.68-9.0317-45.133-2.0401-57.406z" fill="#3f3d56"/>
  <path d="m479.82 342.07a10.141 10.141 0 0 0-1.1116 1.1464l-47.53-4.8584-4.7681-10.582-16.911 5.1085 6.6203 19.554a7.7071 7.7071 0 0 0 7.63 5.2285l54.306-2.3268a10.113 10.113 0 1 0 1.7643-13.27z" fill="#ffb6b6"/>
  <path d="m432.12 336.09a4.3306 4.3306 0 0 0-0.022-3.6098l-9.1855-19.725a12.04 12.04 0 0 0-23.104 6.7835l3.077 21.611a4.3353 4.3353 0 0 0 5.5253 3.5447l20.99-6.2297a4.3304 4.3304 0 0 0 2.7191-2.3752z" fill="#3f3d56"/>
 </g>
</svg>
