<?xml version="1.0" encoding="UTF-8" standalone="no"?>
<svg
   xmlns:dc="http://purl.org/dc/elements/1.1/"
   xmlns:cc="http://creativecommons.org/ns#"
   xmlns:rdf="http://www.w3.org/1999/02/22-rdf-syntax-ns#"
   xmlns:svg="http://www.w3.org/2000/svg"
   xmlns="http://www.w3.org/2000/svg"
   xmlns:sodipodi="http://sodipodi.sourceforge.net/DTD/sodipodi-0.dtd"
   xmlns:inkscape="http://www.inkscape.org/namespaces/inkscape"
   width="297mm"
   height="210mm"
   viewBox="0 0 297 210"
   version="1.1"
   id="svg8"
   inkscape:version="1.0.2 (e86c870879, 2021-01-15)"
   sodipodi:docname="web-design-illustration-alt.svg">
  <defs
     id="defs2" />
  <sodipodi:namedview
     id="base"
     pagecolor="#ffffff"
     bordercolor="#666666"
     borderopacity="1.0"
     inkscape:pageopacity="0.0"
     inkscape:pageshadow="2"
     inkscape:zoom="0.39746136"
     inkscape:cx="385.95011"
     inkscape:cy="366.85282"
     inkscape:document-units="mm"
     inkscape:current-layer="layer1"
     inkscape:document-rotation="0"
     showgrid="false"
     inkscape:snap-page="true"
     inkscape:snap-global="true"
     inkscape:window-width="1410"
     inkscape:window-height="908"
     inkscape:window-x="0"
     inkscape:window-y="0"
     inkscape:window-maximized="1" />
  <metadata
     id="metadata5">
    <rdf:RDF>
      <cc:Work
         rdf:about="">
        <dc:format>image/svg+xml</dc:format>
        <dc:type
           rdf:resource="http://purl.org/dc/dcmitype/StillImage" />
        <dc:title></dc:title>
      </cc:Work>
    </rdf:RDF>
  </metadata>
  <g
     inkscape:label="Layer 1"
     inkscape:groupmode="layer"
     id="layer1">
    <rect
       style="opacity:1;fill:#ffffff;fill-opacity:1;stroke-width:0.207;stop-color:#000000"
       id="rect1056"
       width="297"
       height="210"
       x="-4.8279762e-06"
       y="2.2649765e-06"
       ry="0" />
    <path
       style="fill:#8a3fa2;fill-opacity:1;stroke:none;stroke-width:0.264583px;stroke-linecap:butt;stroke-linejoin:miter;stroke-opacity:1"
       d="M 297.52917,0 H 0.52916662 L 297.52917,209.29468 Z"
       id="path1036" />
    <path
       style="fill:#7c3992;stroke:none;stroke-width:0.264583px;stroke-linecap:butt;stroke-linejoin:miter;stroke-opacity:1;fill-opacity:1"
       d="M 0,0 V 210 L 297,0 Z"
       id="path1142" />
    <rect
       style="opacity:0.34707068;fill:#ffffff;fill-opacity:1;stroke-width:0.207;stop-color:#000000"
       id="rect1094"
       width="297"
       height="210"
       x="-4.8279762e-06"
       y="2.2649765e-06"
       ry="0" />
    <circle
       cx="66.329079"
       cy="154.51588"
       r="15.082724"
       fill="#f2f2f2"
       id="circle961"
       style="stroke-width:0.254589" />
    <circle
       cx="68.781563"
       cy="152.30865"
       r="15.082724"
       fill="#6c63ff"
       id="circle963"
       style="stroke-width:0.254589" />
    <rect
       x="80.928391"
       y="135.61987"
       width="186.61388"
       height="0.5091787"
       fill="#3f3d56"
       id="rect965"
       style="fill:#666666;stroke-width:0.254589" />
    <path
       d="m 177.57596,26.428777 h -66.23641 v -1.36519 H 81.305398 v 1.36519 H 14.795947 a 4.4803907,4.4803907 0 0 0 -4.480396,4.480392 v 90.698021 a 4.480406,4.480406 0 0 0 4.480396,4.48041 H 177.57596 a 4.480406,4.480406 0 0 0 4.4804,-4.48041 V 30.909169 a 4.4803907,4.4803907 0 0 0 -4.4804,-4.480392 z"
       fill="#3f3d56"
       id="path967"
       style="fill:#f2f2f2;fill-opacity:1;stroke-width:0.254589;stroke:#000000;stroke-opacity:1" />
    <rect
       x="16.322386"
       y="34.346874"
       width="159.72714"
       height="90.102486"
       fill="#6c63ff"
       id="rect969"
       style="fill:#8a3fa2;fill-opacity:1;stroke-width:0.254589" />
    <circle
       cx="96.049438"
       cy="30.251308"
       r="1.6382265"
       fill="#6c63ff"
       id="circle971"
       style="stroke-width:0.254589" />
    <polygon
       points="50.406,403.667 50.406,49.754 498.374,403.667 "
       opacity="0.1"
       id="polygon973"
       transform="matrix(0.25458935,0,0,0.25458935,3.4896061,21.680132)" />
    <circle
       cx="41.314899"
       cy="102.3535"
       r="15.353469"
       fill="#f2f2f2"
       id="circle975"
       style="stroke-width:0.254589" />
    <rect
       x="133.31815"
       y="82.939865"
       width="14.92026"
       height="3.1176655"
       fill="#3f3d56"
       id="rect977"
       style="stroke-width:0.254589;fill:#ffffff" />
    <rect
       x="115.2802"
       y="58.666611"
       width="50.996113"
       height="1.3361435"
       fill="#3f3d56"
       id="rect979"
       style="stroke-width:0.254589;fill:#ffffff" />
    <rect
       x="115.2802"
       y="62.897728"
       width="50.996113"
       height="1.3361435"
       fill="#3f3d56"
       id="rect981"
       style="stroke-width:0.254589;fill:#ffffff" />
    <rect
       x="115.2802"
       y="67.128845"
       width="50.996113"
       height="1.3361435"
       fill="#3f3d56"
       id="rect983"
       style="stroke-width:0.254589;fill:#ffffff" />
    <rect
       x="115.2802"
       y="71.359962"
       width="50.996113"
       height="1.3361435"
       fill="#3f3d56"
       id="rect985"
       style="stroke-width:0.254589;fill:#ffffff" />
    <rect
       x="115.2802"
       y="75.59108"
       width="50.996113"
       height="1.3361435"
       fill="#3f3d56"
       id="rect987"
       style="stroke-width:0.254589;fill:#ffffff" />
    <rect
       x="160.04099"
       y="36.174873"
       width="6.2353334"
       height="6.2353334"
       fill="#f2f2f2"
       id="rect989"
       style="stroke-width:0.254589" />
    <path
       d="m 169.17129,45.305182 h -7.57148 v -7.571487 h 7.57148 z m -7.24228,-0.329184 h 6.91309 v -6.913096 h -6.91309 z"
       fill="#3f3d56"
       id="path991"
       style="stroke-width:0.254589" />
    <path
       d="m 186.54115,122.81114 h -15.58833 v -1.12313 a 0.22268421,0.22268421 0 0 0 -0.22269,-0.22269 h -5.34457 a 0.22268421,0.22268421 0 0 0 -0.22269,0.22269 v 1.12313 h -3.34036 v -1.12313 a 0.22268167,0.22268167 0 0 0 -0.22269,-0.22269 h -5.34457 a 0.22268421,0.22268421 0 0 0 -0.22269,0.22269 v 1.12313 h -3.34036 v -1.12313 a 0.22268421,0.22268421 0 0 0 -0.22269,-0.22269 h -5.34456 a 0.22268421,0.22268421 0 0 0 -0.22269,0.22269 v 1.12313 h -3.34037 v -1.12313 a 0.22268421,0.22268421 0 0 0 -0.22269,-0.22269 h -5.34457 a 0.22268421,0.22268421 0 0 0 -0.22269,0.22269 v 1.12313 h -3.34036 v -1.12313 a 0.22268421,0.22268421 0 0 0 -0.22268,-0.22269 h -5.34458 a 0.22268167,0.22268167 0 0 0 -0.22268,0.22269 v 1.12313 h -3.34036 v -1.12313 a 0.22268421,0.22268421 0 0 0 -0.22269,-0.22269 h -5.34457 a 0.22268421,0.22268421 0 0 0 -0.22269,0.22269 v 1.12313 h -3.34037 v -1.12313 a 0.22268421,0.22268421 0 0 0 -0.22269,-0.22269 H 74.082477 a 0.22268421,0.22268421 0 0 0 -0.222689,0.22269 v 1.12313 H 70.51943 v -1.12313 a 0.22268421,0.22268421 0 0 0 -0.222689,-0.22269 H 64.95217 a 0.22268167,0.22268167 0 0 0 -0.22269,0.22269 v 1.12313 h -3.340357 v -1.12313 a 0.22268421,0.22268421 0 0 0 -0.222692,-0.22269 h -5.344569 a 0.22268421,0.22268421 0 0 0 -0.222692,0.22269 v 1.12313 h -3.340357 v -1.12313 a 0.22268167,0.22268167 0 0 0 -0.222689,-0.22269 h -5.344572 a 0.22268421,0.22268421 0 0 0 -0.222689,0.22269 v 1.12313 h -3.340347 v -1.12313 a 0.22268421,0.22268421 0 0 0 -0.222689,-0.22269 h -5.344582 a 0.22268421,0.22268421 0 0 0 -0.222692,0.22269 v 1.12313 h -3.340355 v -1.12313 a 0.22268421,0.22268421 0 0 0 -0.222691,-0.22269 h -5.344572 a 0.22268421,0.22268421 0 0 0 -0.222689,0.22269 v 1.12313 h -3.340357 v -1.12313 a 0.22268421,0.22268421 0 0 0 -0.22269,-0.22269 h -5.344571 a 0.22268167,0.22268167 0 0 0 -0.222689,0.22269 v 1.12313 H 8.8341774 a 5.3445764,5.3445764 0 0 0 -5.3445713,5.34457 v 2.41669 a 5.3445713,5.3445713 0 0 0 5.3445713,5.34455 H 186.54115 a 5.3445688,5.3445688 0 0 0 5.34457,-5.34455 v -2.41669 a 5.3445739,5.3445739 0 0 0 -5.34457,-5.34457 z"
       fill="#3f3d56"
       id="path993"
       style="fill:#f2f2f2;fill-opacity:1;stroke-width:0.254589;stroke:#000000;stroke-opacity:1" />
    <path
       d="m 45.031299,111.94307 a 19.348791,19.348791 0 1 1 19.34879,-19.348796 19.370721,19.370721 0 0 1 -19.34879,19.348796 z m 0,-38.188407 A 18.839612,18.839612 0 1 0 63.870911,92.594274 18.860959,18.860959 0 0 0 45.031299,73.754663 Z"
       fill="#3f3d56"
       id="path995"
       style="stroke-width:0.254589" />
    <rect
       x="152.72261"
       y="29.965294"
       width="64.920158"
       height="0.5091787"
       fill="#3f3d56"
       id="rect997"
       style="fill:#666666;stroke-width:0.254589" />
    <rect
       x="106.89651"
       y="164.38846"
       width="186.61388"
       height="0.5091787"
       fill="#3f3d56"
       id="rect999"
       style="fill:#666666;stroke-width:0.254589" />
    <rect
       x="52.541748"
       y="187.81068"
       width="64.920158"
       height="0.5091787"
       fill="#3f3d56"
       id="rect1001"
       style="fill:#ffffff;stroke-width:0.254589" />
    <rect
       x="123.40118"
       y="161.70427"
       width="7.1285019"
       height="7.1285019"
       fill="#6c63ff"
       id="rect1003"
       style="stroke-width:0.254589" />
    <path
       d="m 134.85771,164.75935 h -8.65604 v -8.65604 h 8.65604 z m -8.27969,-0.37635 h 7.90334 v -7.90334 h -7.90334 z"
       fill="#3f3d56"
       id="path1005"
       style="fill:#666666;stroke-width:0.254589" />
    <rect
       x="206.14273"
       y="27.281097"
       width="7.1285019"
       height="7.1285019"
       fill="#6c63ff"
       id="rect1007"
       style="stroke-width:0.254589" />
    <path
       d="m 217.59925,30.336171 h -8.65604 v -8.656039 h 8.65604 z m -8.27969,-0.37635 h 7.90334 v -7.90334 h -7.90334 z"
       fill="#3f3d56"
       id="path1009"
       style="fill:#666666;stroke-width:0.254589" />
    <rect
       x="277.93692"
       y="161.70427"
       width="7.1285019"
       height="7.1285019"
       fill="#6c63ff"
       id="rect1011"
       style="stroke-width:0.254589" />
    <path
       d="m 289.39345,164.75935 h -8.65604 v -8.65604 h 8.65604 z m -8.2797,-0.37635 h 7.90334 v -7.90334 h -7.90334 z"
       fill="#3f3d56"
       id="path1013"
       style="fill:#808080;stroke-width:0.254589;fill-opacity:0.98039216" />
    <path
       d="M 272.63417,80.734224 H 272.0286 V 64.144775 a 9.6015166,9.6015166 0 0 0 -9.60153,-9.601523 h -35.14695 a 9.601514,9.601514 0 0 0 -9.60155,9.601523 v 91.010955 a 9.6015166,9.6015166 0 0 0 9.60155,9.60153 h 35.14695 a 9.6015166,9.6015166 0 0 0 9.60153,-9.60153 V 92.542865 h 0.60559 z"
       fill="#3f3d56"
       id="path1015"
       style="fill:#f2f2f2;fill-opacity:1;stroke-width:0.254589;stroke:#000000;stroke-opacity:1" />
    <path
       d="m 269.98392,64.709095 v 90.878215 a 7.1705676,7.1705676 0 0 1 -7.16929,7.17178 h -35.31658 a 7.170537,7.170537 0 0 1 -7.16924,-7.17178 V 64.709095 a 7.1699999,7.1699999 0 0 1 7.16924,-7.169236 h 4.28473 a 3.4062018,3.4062018 0 0 0 3.15437,4.692082 h 20.13547 a 3.4061713,3.4061713 0 0 0 3.15436,-4.692082 h 4.5877 a 7.1700202,7.1700202 0 0 1 7.16924,7.169236 z"
       fill="#6c63ff"
       id="path1017"
       style="fill:#8a3fa2;fill-opacity:1;stroke-width:0.254589" />
    <rect
       x="239.8961"
       y="117.46115"
       width="10.520541"
       height="3.1176655"
       fill="#3f3d56"
       id="rect1019"
       style="stroke-width:0.254589;fill:#ffffff" />
    <rect
       x="227.17725"
       y="93.187897"
       width="35.958271"
       height="1.3361435"
       fill="#3f3d56"
       id="rect1021"
       style="stroke-width:0.254589;fill:#ffffff" />
    <rect
       x="227.17725"
       y="97.419014"
       width="35.958271"
       height="1.3361435"
       fill="#3f3d56"
       id="rect1023"
       style="stroke-width:0.254589;fill:#ffffff" />
    <rect
       x="227.17725"
       y="101.65013"
       width="35.958271"
       height="1.3361435"
       fill="#3f3d56"
       id="rect1025"
       style="stroke-width:0.254589;fill:#ffffff" />
    <rect
       x="227.17725"
       y="105.88125"
       width="35.958271"
       height="1.3361435"
       fill="#3f3d56"
       id="rect1027"
       style="stroke-width:0.254589;fill:#ffffff" />
    <rect
       x="227.17725"
       y="110.11237"
       width="35.958271"
       height="1.3361435"
       fill="#3f3d56"
       id="rect1029"
       style="stroke-width:0.254589;fill:#ffffff" />
    <rect
       x="240.17714"
       y="75.443985"
       width="6.2353334"
       height="6.2353334"
       fill="#f2f2f2"
       id="rect1031"
       style="stroke-width:0.254589" />
    <path
       d="m 242.5641,77.003225 v 7.571488 h 7.57149 v -7.571488 z m 7.24307,7.243067 h -6.91465 v -6.914647 h 6.91465 z"
       fill="#3f3d56"
       id="path1033"
       style="stroke-width:0.254589" />
    <path
       d="m 269.98392,145.88237 v 9.70495 a 7.1705676,7.1705676 0 0 1 -7.16929,7.17178 h -35.31658 a 7.170537,7.170537 0 0 1 -7.16924,-7.17178 V 106.6527 l 29.75386,23.50624 0.50918,0.40225 5.53477,4.3713 0.51681,0.40989 z"
       opacity="0.1"
       id="path1035"
       style="stroke-width:0.254589" />
    <circle
       cx="242.1013"
       cy="148.6456"
       r="11.168282"
       fill="#f2f2f2"
       id="circle1037"
       style="stroke-width:0.254589" />
    <path
       d="M 85.001827,188.31987 A 22.149273,22.149273 0 1 1 107.1511,166.1706 22.174371,22.174371 0 0 1 85.001827,188.31987 Z m 0,-43.78937 a 21.640095,21.640095 0 1 0 21.640093,21.6401 21.664609,21.664609 0 0 0 -21.640093,-21.6401 z"
       fill="#3f3d56"
       id="path1039"
       style="fill:#666666;stroke-width:0.254589" />
    <path
       d="m 245.39311,157.25997 a 14.002414,14.002414 0 1 1 14.00241,-14.00241 14.018257,14.018257 0 0 1 -14.00241,14.00241 z m 0,-27.49565 a 13.493236,13.493236 0 1 0 13.49323,13.49324 13.508417,13.508417 0 0 0 -13.49323,-13.49324 z"
       fill="#3f3d56"
       id="path1041"
       style="stroke-width:0.254589" />
  </g>
</svg>
