<?xml version="1.0" encoding="UTF-8" standalone="no"?>
<svg
   xmlns:dc="http://purl.org/dc/elements/1.1/"
   xmlns:cc="http://creativecommons.org/ns#"
   xmlns:rdf="http://www.w3.org/1999/02/22-rdf-syntax-ns#"
   xmlns:svg="http://www.w3.org/2000/svg"
   xmlns="http://www.w3.org/2000/svg"
   xmlns:sodipodi="http://sodipodi.sourceforge.net/DTD/sodipodi-0.dtd"
   xmlns:inkscape="http://www.inkscape.org/namespaces/inkscape"
   width="297mm"
   height="210mm"
   viewBox="0 0 297 210"
   version="1.1"
   id="svg8"
   inkscape:version="1.0.2 (e86c870879, 2021-01-15)"
   sodipodi:docname="web-dev-illustration.svg">
  <defs
     id="defs2" />
  <sodipodi:namedview
     id="base"
     pagecolor="#ffffff"
     bordercolor="#666666"
     borderopacity="1.0"
     inkscape:pageopacity="0.0"
     inkscape:pageshadow="2"
     inkscape:zoom="0.26292994"
     inkscape:cx="702.15052"
     inkscape:cy="18.918436"
     inkscape:document-units="mm"
     inkscape:current-layer="layer1"
     inkscape:document-rotation="0"
     showgrid="false"
     inkscape:snap-page="true"
     inkscape:snap-global="true"
     inkscape:window-width="1410"
     inkscape:window-height="908"
     inkscape:window-x="0"
     inkscape:window-y="0"
     inkscape:window-maximized="1" />
  <metadata
     id="metadata5">
    <rdf:RDF>
      <cc:Work
         rdf:about="">
        <dc:format>image/svg+xml</dc:format>
        <dc:type
           rdf:resource="http://purl.org/dc/dcmitype/StillImage" />
        <dc:title></dc:title>
      </cc:Work>
    </rdf:RDF>
  </metadata>
  <g
     inkscape:label="Layer 1"
     inkscape:groupmode="layer"
     id="layer1">
    <rect
       style="fill:#333333;stroke-width:0.207;stop-color:#000000"
       id="rect1094"
       width="297"
       height="210"
       x="0"
       y="0"
       ry="0" />
    <path
       style="fill:#3b3b3b;stroke:none;stroke-width:0.264583px;stroke-linecap:butt;stroke-linejoin:miter;stroke-opacity:1;fill-opacity:1"
       d="M 0,0 V 210 L 297,0 Z"
       id="path1142" />
    <g
       id="g1185"
       transform="translate(-0.59822579,0.3981475)">
      <circle
         cx="66.927307"
         cy="154.11774"
         r="15.082724"
         fill="#f2f2f2"
         id="circle961"
         style="stroke-width:0.254589" />
      <circle
         cx="69.379791"
         cy="151.91051"
         r="15.082724"
         fill="#6c63ff"
         id="circle963"
         style="stroke-width:0.254589" />
      <rect
         x="81.526619"
         y="135.22173"
         width="186.61388"
         height="0.5091787"
         fill="#3f3d56"
         id="rect965"
         style="fill:#ffffff;stroke-width:0.254589" />
      <path
         d="m 178.17419,26.030629 h -66.23641 v -1.36519 H 81.903624 v 1.36519 H 15.394173 a 4.4803907,4.4803907 0 0 0 -4.480396,4.480393 v 90.698018 a 4.480406,4.480406 0 0 0 4.480396,4.48041 H 178.17419 a 4.480406,4.480406 0 0 0 4.4804,-4.48041 V 30.511022 a 4.4803907,4.4803907 0 0 0 -4.4804,-4.480393 z"
         fill="#3f3d56"
         id="path967"
         style="fill:#b6c9cc;fill-opacity:1;stroke-width:0.254589" />
      <rect
         x="16.920612"
         y="33.948727"
         width="159.72714"
         height="90.102486"
         fill="#6c63ff"
         id="rect969"
         style="fill:#8a3fa2;fill-opacity:1;stroke-width:0.254589" />
      <circle
         cx="96.647667"
         cy="29.853161"
         r="1.6382265"
         fill="#6c63ff"
         id="circle971"
         style="stroke-width:0.254589" />
      <polygon
         points="50.406,49.754 498.374,403.667 50.406,403.667 "
         opacity="0.1"
         id="polygon973"
         transform="matrix(0.25458935,0,0,0.25458935,4.0878319,21.281985)" />
      <circle
         cx="41.913124"
         cy="101.95535"
         r="15.353469"
         fill="#f2f2f2"
         id="circle975"
         style="stroke-width:0.254589" />
      <rect
         x="133.91637"
         y="82.541718"
         width="14.92026"
         height="3.1176655"
         fill="#3f3d56"
         id="rect977"
         style="stroke-width:0.254589" />
      <rect
         x="115.87843"
         y="58.268463"
         width="50.996113"
         height="1.3361435"
         fill="#3f3d56"
         id="rect979"
         style="stroke-width:0.254589" />
      <rect
         x="115.87843"
         y="62.49958"
         width="50.996113"
         height="1.3361435"
         fill="#3f3d56"
         id="rect981"
         style="stroke-width:0.254589" />
      <rect
         x="115.87843"
         y="66.730698"
         width="50.996113"
         height="1.3361435"
         fill="#3f3d56"
         id="rect983"
         style="stroke-width:0.254589" />
      <rect
         x="115.87843"
         y="70.961815"
         width="50.996113"
         height="1.3361435"
         fill="#3f3d56"
         id="rect985"
         style="stroke-width:0.254589" />
      <rect
         x="115.87843"
         y="75.192932"
         width="50.996113"
         height="1.3361435"
         fill="#3f3d56"
         id="rect987"
         style="stroke-width:0.254589" />
      <rect
         x="160.63921"
         y="35.776726"
         width="6.2353334"
         height="6.2353334"
         fill="#f2f2f2"
         id="rect989"
         style="stroke-width:0.254589" />
      <path
         d="m 169.76952,44.907034 h -7.57148 v -7.571487 h 7.57148 z m -7.24228,-0.329184 h 6.91309 v -6.913096 h -6.91309 z"
         fill="#3f3d56"
         id="path991"
         style="stroke-width:0.254589" />
      <path
         d="m 187.13938,122.41299 h -15.58833 v -1.12313 a 0.22268421,0.22268421 0 0 0 -0.22269,-0.22269 h -5.34457 a 0.22268421,0.22268421 0 0 0 -0.22269,0.22269 v 1.12313 h -3.34036 v -1.12313 a 0.22268167,0.22268167 0 0 0 -0.22269,-0.22269 h -5.34457 a 0.22268421,0.22268421 0 0 0 -0.22269,0.22269 v 1.12313 h -3.34036 v -1.12313 a 0.22268421,0.22268421 0 0 0 -0.22269,-0.22269 h -5.34456 a 0.22268421,0.22268421 0 0 0 -0.22269,0.22269 v 1.12313 h -3.34037 v -1.12313 a 0.22268421,0.22268421 0 0 0 -0.22269,-0.22269 h -5.34457 a 0.22268421,0.22268421 0 0 0 -0.22269,0.22269 v 1.12313 h -3.34036 v -1.12313 a 0.22268421,0.22268421 0 0 0 -0.22268,-0.22269 h -5.34458 a 0.22268167,0.22268167 0 0 0 -0.22268,0.22269 v 1.12313 h -3.34036 v -1.12313 a 0.22268421,0.22268421 0 0 0 -0.22269,-0.22269 h -5.34457 a 0.22268421,0.22268421 0 0 0 -0.22269,0.22269 v 1.12313 h -3.34037 v -1.12313 a 0.22268421,0.22268421 0 0 0 -0.22269,-0.22269 H 74.680703 a 0.22268421,0.22268421 0 0 0 -0.222689,0.22269 v 1.12313 h -3.340358 v -1.12313 a 0.22268421,0.22268421 0 0 0 -0.222689,-0.22269 h -5.344571 a 0.22268167,0.22268167 0 0 0 -0.22269,0.22269 v 1.12313 h -3.340357 v -1.12313 a 0.22268421,0.22268421 0 0 0 -0.222692,-0.22269 h -5.344569 a 0.22268421,0.22268421 0 0 0 -0.222692,0.22269 v 1.12313 h -3.340357 v -1.12313 a 0.22268167,0.22268167 0 0 0 -0.222689,-0.22269 h -5.344572 a 0.22268421,0.22268421 0 0 0 -0.222689,0.22269 v 1.12313 h -3.340347 v -1.12313 a 0.22268421,0.22268421 0 0 0 -0.222689,-0.22269 h -5.344582 a 0.22268421,0.22268421 0 0 0 -0.222692,0.22269 v 1.12313 h -3.340355 v -1.12313 a 0.22268421,0.22268421 0 0 0 -0.222691,-0.22269 h -5.344572 a 0.22268421,0.22268421 0 0 0 -0.222689,0.22269 v 1.12313 h -3.340357 v -1.12313 a 0.22268421,0.22268421 0 0 0 -0.22269,-0.22269 h -5.344571 a 0.22268167,0.22268167 0 0 0 -0.222689,0.22269 v 1.12313 H 9.4324032 a 5.3445764,5.3445764 0 0 0 -5.3445713,5.34457 v 2.41669 a 5.3445713,5.3445713 0 0 0 5.3445713,5.34455 H 187.13938 a 5.3445688,5.3445688 0 0 0 5.34457,-5.34455 v -2.41669 a 5.3445739,5.3445739 0 0 0 -5.34457,-5.34457 z"
         fill="#3f3d56"
         id="path993"
         style="fill:#c9d7d9;fill-opacity:1;stroke-width:0.254589" />
      <path
         d="m 45.629525,111.54492 a 19.348791,19.348791 0 1 1 19.34879,-19.348793 19.370721,19.370721 0 0 1 -19.34879,19.348793 z m 0,-38.188404 A 18.839612,18.839612 0 1 0 64.469137,92.196127 18.860959,18.860959 0 0 0 45.629525,73.356516 Z"
         fill="#3f3d56"
         id="path995"
         style="stroke-width:0.254589" />
      <rect
         x="153.32083"
         y="29.567146"
         width="64.920158"
         height="0.5091787"
         fill="#3f3d56"
         id="rect997"
         style="fill:#ffffff;stroke-width:0.254589" />
      <rect
         x="107.49474"
         y="163.99031"
         width="186.61388"
         height="0.5091787"
         fill="#3f3d56"
         id="rect999"
         style="fill:#ffffff;stroke-width:0.254589" />
      <rect
         x="53.139973"
         y="187.41254"
         width="64.920158"
         height="0.5091787"
         fill="#3f3d56"
         id="rect1001"
         style="fill:#ffffff;stroke-width:0.254589" />
      <rect
         x="123.99941"
         y="161.30612"
         width="7.1285019"
         height="7.1285019"
         fill="#6c63ff"
         id="rect1003"
         style="stroke-width:0.254589" />
      <path
         d="m 135.45594,164.3612 h -8.65604 v -8.65604 h 8.65604 z m -8.27969,-0.37635 h 7.90334 v -7.90334 h -7.90334 z"
         fill="#3f3d56"
         id="path1005"
         style="fill:#ffffff;stroke-width:0.254589" />
      <rect
         x="206.74095"
         y="26.88295"
         width="7.1285019"
         height="7.1285019"
         fill="#6c63ff"
         id="rect1007"
         style="stroke-width:0.254589" />
      <path
         d="m 218.19748,29.938023 h -8.65604 v -8.656038 h 8.65604 z m -8.27969,-0.376349 h 7.90334 v -7.90334 h -7.90334 z"
         fill="#3f3d56"
         id="path1009"
         style="fill:#ffffff;stroke-width:0.254589" />
      <rect
         x="278.53516"
         y="161.30612"
         width="7.1285019"
         height="7.1285019"
         fill="#6c63ff"
         id="rect1011"
         style="stroke-width:0.254589" />
      <path
         d="m 289.99168,164.3612 h -8.65604 v -8.65604 h 8.65604 z m -8.2797,-0.37635 h 7.90334 v -7.90334 h -7.90334 z"
         fill="#3f3d56"
         id="path1013"
         style="fill:#ffffff;stroke-width:0.254589" />
      <path
         d="m 273.2324,80.336077 h -0.60557 V 63.746628 a 9.6015166,9.6015166 0 0 0 -9.60153,-9.601524 h -35.14695 a 9.601514,9.601514 0 0 0 -9.60155,9.601524 v 91.010952 a 9.6015166,9.6015166 0 0 0 9.60155,9.60153 h 35.14695 a 9.6015166,9.6015166 0 0 0 9.60153,-9.60153 V 92.144718 h 0.60559 z"
         fill="#3f3d56"
         id="path1015"
         style="fill:#c9d7d9;fill-opacity:1;stroke-width:0.254589" />
      <path
         d="m 270.58215,64.310948 v 90.878212 a 7.1705676,7.1705676 0 0 1 -7.16929,7.17178 h -35.31658 a 7.170537,7.170537 0 0 1 -7.16924,-7.17178 V 64.310948 a 7.1699999,7.1699999 0 0 1 7.16924,-7.169236 h 4.28473 a 3.4062018,3.4062018 0 0 0 3.15437,4.692082 h 20.13547 a 3.4061713,3.4061713 0 0 0 3.15436,-4.692082 h 4.5877 a 7.1700202,7.1700202 0 0 1 7.16924,7.169236 z"
         fill="#6c63ff"
         id="path1017"
         style="fill:#8a3fa2;fill-opacity:1;stroke-width:0.254589" />
      <rect
         x="240.49432"
         y="117.063"
         width="10.520541"
         height="3.1176655"
         fill="#3f3d56"
         id="rect1019"
         style="stroke-width:0.254589" />
      <rect
         x="227.77547"
         y="92.789749"
         width="35.958271"
         height="1.3361435"
         fill="#3f3d56"
         id="rect1021"
         style="stroke-width:0.254589" />
      <rect
         x="227.77547"
         y="97.020866"
         width="35.958271"
         height="1.3361435"
         fill="#3f3d56"
         id="rect1023"
         style="stroke-width:0.254589" />
      <rect
         x="227.77547"
         y="101.25198"
         width="35.958271"
         height="1.3361435"
         fill="#3f3d56"
         id="rect1025"
         style="stroke-width:0.254589" />
      <rect
         x="227.77547"
         y="105.4831"
         width="35.958271"
         height="1.3361435"
         fill="#3f3d56"
         id="rect1027"
         style="stroke-width:0.254589" />
      <rect
         x="227.77547"
         y="109.71422"
         width="35.958271"
         height="1.3361435"
         fill="#3f3d56"
         id="rect1029"
         style="stroke-width:0.254589" />
      <rect
         x="240.77536"
         y="75.045837"
         width="6.2353334"
         height="6.2353334"
         fill="#f2f2f2"
         id="rect1031"
         style="stroke-width:0.254589" />
      <path
         d="m 243.16233,76.605078 v 7.571487 h 7.57149 v -7.571487 z m 7.24307,7.243067 h -6.91465 v -6.914647 h 6.91465 z"
         fill="#3f3d56"
         id="path1033"
         style="stroke-width:0.254589" />
      <path
         d="m 270.58215,145.48422 v 9.70495 a 7.1705676,7.1705676 0 0 1 -7.16929,7.17178 h -35.31658 a 7.170537,7.170537 0 0 1 -7.16924,-7.17178 v -48.93462 l 29.75386,23.50624 0.50918,0.40225 5.53477,4.3713 0.51681,0.40989 z"
         opacity="0.1"
         id="path1035"
         style="stroke-width:0.254589" />
      <circle
         cx="242.69952"
         cy="148.24745"
         r="11.168282"
         fill="#f2f2f2"
         id="circle1037"
         style="stroke-width:0.254589" />
      <path
         d="m 85.600053,187.92172 a 22.149273,22.149273 0 1 1 22.149277,-22.14927 22.174371,22.174371 0 0 1 -22.149277,22.14927 z m 0,-43.78937 a 21.640095,21.640095 0 1 0 21.640097,21.6401 21.664609,21.664609 0 0 0 -21.640097,-21.6401 z"
         fill="#3f3d56"
         id="path1039"
         style="fill:#ffffff;stroke-width:0.254589" />
      <path
         d="m 245.99134,156.86182 a 14.002414,14.002414 0 1 1 14.00241,-14.00241 14.018257,14.018257 0 0 1 -14.00241,14.00241 z m 0,-27.49565 a 13.493236,13.493236 0 1 0 13.49323,13.49324 13.508417,13.508417 0 0 0 -13.49323,-13.49324 z"
         fill="#3f3d56"
         id="path1041"
         style="stroke-width:0.254589" />
    </g>
  </g>
</svg>
