<?xml version="1.0" encoding="UTF-8"?>
<svg width="103.77mm" height="55.99mm" version="1.1" viewBox="0 0 103.77 55.99" xmlns="http://www.w3.org/2000/svg" xmlns:cc="http://creativecommons.org/ns#" xmlns:dc="http://purl.org/dc/elements/1.1/" xmlns:rdf="http://www.w3.org/1999/02/22-rdf-syntax-ns#">
 <metadata>
  <rdf:RDF>
   <cc:Work rdf:about="">
    <dc:format>image/svg+xml</dc:format>
    <dc:type rdf:resource="http://purl.org/dc/dcmitype/StillImage"/>
    <dc:title/>
   </cc:Work>
  </rdf:RDF>
 </metadata>
 <g transform="translate(-40.379 -81.219)">
  <g>
   <g fill="#184086" stroke-width=".49849" aria-label="CONCRECAL">
    <path d="m54.869 123.5-0.07311 2.3688q-0.36556 0.59951-0.93583 1.082-0.55565 0.46791-1.3453 0.74574-0.7896 0.27782-1.8278 0.27782-1.6085-0.0146-2.8513-0.658-1.2283-0.65801-1.9155-1.8424-0.68725-1.199-0.68725-2.8367 0-1.6084 0.67263-2.7929 0.68725-1.199 1.9155-1.857 1.2429-0.658 2.9391-0.658 1.1113 0 2.0033 0.27782 0.89196 0.2632 1.5207 0.658l0.20471 2.208h-0.1316q-0.35094-1.3452-1.316-1.9886-0.95045-0.65801-2.2226-0.65801-1.2575 0-2.1641 0.59952-0.90658 0.58489-1.4037 1.6669-0.49716 1.0674-0.49716 2.5297 0 1.4476 0.48254 2.5297 0.49716 1.082 1.3745 1.6962 0.89196 0.59952 2.0764 0.62876 1.0674 0 1.9155-0.38018 0.84809-0.38018 1.4037-1.2429 0.55565-0.87734 0.74574-2.3542z"/>
    <path d="m61.975 117.33q1.6377 0 2.8513 0.658 1.2283 0.658 1.9009 1.857 0.68725 1.199 0.68725 2.8075 0 1.6085-0.68725 2.8075-0.67263 1.199-1.9009 1.857-1.2137 0.658-2.8513 0.658-1.6085 0-2.8367-0.658-1.2137-0.65801-1.9009-1.857-0.67263-1.199-0.67263-2.8075 0-1.6084 0.67263-2.8075 0.68725-1.199 1.9009-1.857 1.2283-0.658 2.8367-0.658zm0 10.148q1.1844 0 2.0471-0.59951 0.86272-0.59952 1.3453-1.6816t0.48254-2.5443-0.48254-2.5443-1.3453-1.6816q-0.86272-0.59952-2.0471-0.59952-1.1552 0-2.0325 0.59952-0.86272 0.59951-1.3453 1.6816t-0.48254 2.5443 0.48254 2.5443 1.3453 1.6816q0.87734 0.59951 2.0325 0.59951z"/>
    <path d="m69.564 117.32 8.7734 9.0073 0.14622 1.6523-8.7734-8.9927zm0.04387 9.4168v1.0382h-1.2137v-0.14623t0.1316 0 0.14622 0q0.36556 0 0.62876-0.2632t0.2632-0.62876zm1.0967 0q0 0.36556 0.2632 0.62876 0.2632 0.2632 0.62876 0.2632 0.01462 0 0.14622 0 0.1316 0 0.1316 0v0.14623h-1.2137v-1.0382zm-1.1405-9.4168 1.1259 1.2868 0.01462 9.1682h-1.1405v-8.6272q0-0.77498-0.07311-1.3014-0.07311-0.52641-0.07311-0.52641zm8.905 0.21934v8.5687q0 0.49715 0.02925 0.93582 0.04387 0.42405 0.07311 0.68725 0.04387 0.24858 0.04387 0.24858h-0.1316l-1.1405-1.3014v-9.1389zm1.1698 0v0.14622t-0.1316 0q-0.1316 0-0.1316 0-0.36556 0-0.62876 0.2632-0.2632 0.24858-0.27782 0.62876h-0.04387v-1.0382zm-3.4801 0h1.2137v1.0382h-0.02925q-0.01462-0.38018-0.27782-0.62876-0.24858-0.2632-0.62876-0.2632 0 0-0.1316 0-0.1316 0-0.14622 0z"/>
    <path d="m90.386 123.5-0.07311 2.3688q-0.36556 0.59951-0.93583 1.082-0.55565 0.46791-1.3453 0.74574-0.7896 0.27782-1.8278 0.27782-1.6085-0.0146-2.8513-0.658-1.2283-0.65801-1.9155-1.8424-0.68725-1.199-0.68725-2.8367 0-1.6084 0.67263-2.7929 0.68725-1.199 1.9155-1.857 1.2429-0.658 2.9391-0.658 1.1113 0 2.0033 0.27782 0.89196 0.2632 1.5207 0.658l0.20471 2.208h-0.1316q-0.35094-1.3452-1.316-1.9886-0.95045-0.65801-2.2226-0.65801-1.2575 0-2.1641 0.59952-0.90658 0.58489-1.4037 1.6669-0.49716 1.0674-0.49716 2.5297 0 1.4476 0.48254 2.5297 0.49716 1.082 1.3745 1.6962 0.89196 0.59952 2.0764 0.62876 1.0674 0 1.9155-0.38018 0.84809-0.38018 1.4037-1.2429 0.55565-0.87734 0.74574-2.3542z"/>
    <path d="m94.247 117.54h2.0033q0.658 0 1.2283 0.17547 0.57027 0.17546 0.96507 0.5264 0.40942 0.33631 0.64338 0.84809 0.23396 0.51178 0.23396 1.199 0 0.67263-0.30707 1.316-0.30707 0.62876-0.86272 1.0382-0.54102 0.40942-1.2868 0.43867 0.32169 0.11698 0.64338 0.45329 0.32169 0.33631 0.55565 0.658 0 0.0146 0.17547 0.27783 0.19009 0.2632 0.46791 0.658 0.27782 0.38018 0.55565 0.76036 0.29245 0.38018 0.51178 0.62876 0.29245 0.35094 0.57027 0.59951 0.29245 0.23396 0.61414 0.38018 0.33631 0.1316 0.74574 0.1316v0.14623h-1.0236q-0.70187 0-1.2429-0.17547-0.54102-0.19009-0.93583-0.49716-0.3948-0.32169-0.67263-0.68725-0.05849-0.10235-0.24858-0.38018-0.17547-0.27782-0.40942-0.62875-0.21933-0.36556-0.43867-0.7165-0.21933-0.35093-0.38018-0.59951-0.16084-0.2632-0.20471-0.33631-0.24858-0.39481-0.55565-0.67263-0.30707-0.29245-0.67263-0.30707v-0.14622q0.01462 0 0.20471 0.0146 0.20471 0 0.46791-0.0146 0.38018-0.0146 0.80423-0.1316 0.43867-0.11698 0.7896-0.45329 0.36556-0.33632 0.54102-0.99432 0.04387-0.14622 0.05849-0.36556 0.02924-0.21933 0.01462-0.45329-0.01462-1.0089-0.51178-1.5646-0.48254-0.57026-1.2721-0.59951-0.33631-0.0292-0.70187-0.0146-0.36556 0-0.62876 0-0.2632 0-0.29245 0 0-0.0146-0.04387-0.1316-0.02924-0.1316-0.07311-0.24858-0.02925-0.1316-0.02925-0.1316zm0.19009 0v10.236h-1.3599v-10.236zm-1.316 9.1682v1.0674h-1.1698v-0.14623t0.08773 0q0.10236 0 0.10236 0 0.38018 0 0.64338-0.2632 0.27782-0.27782 0.29245-0.658zm0-8.1008h-0.04387q-0.01462-0.38018-0.29245-0.64339-0.2632-0.27782-0.64338-0.27782 0 0-0.10236 0-0.08773 0-0.08773 0v-0.14622h1.1698zm1.2721 8.1008h0.04387q0 0.38018 0.27782 0.658 0.27782 0.2632 0.658 0.2632 0.01462 0 0.08773 0 0.08773 0 0.08773 0v0.14623h-1.1552z"/>
    <path d="m104.31 117.54v10.236h-1.3599v-10.236zm3.9188 9.7238 0.11697 0.51178h-4.0796v-0.51178zm-0.59952-4.7815v0.49715h-3.3631v-0.49715zm0.658-4.9423v0.51178h-4.0211v-0.51178zm0.89196 7.6621-0.7896 2.5735h-2.5735l0.5264-0.51178q0.76036 0 1.2721-0.24858 0.51178-0.2632 0.84809-0.73112 0.33631-0.46791 0.57027-1.082zm-1.55-2.2518v1.1113h-0.14622v-0.19009q0-0.36555-0.24858-0.62876-0.24858-0.2632-0.62876-0.2632v-0.0292zm0-1.55v1.1113h-1.0236v-0.0292q0.38018-0.0146 0.62876-0.27783 0.24858-0.2632 0.24858-0.62876v-0.17547zm0.658-3.3924v1.3452h-0.14622v-0.23395q0-0.4533-0.30707-0.76036-0.29244-0.30707-0.76036-0.32169v-0.0293zm0-0.73111v0.42404l-1.7839-0.16084q0.32169 0 0.67263-0.0439 0.36556-0.0439 0.67263-0.10236 0.30706-0.0585 0.43866-0.11697zm-5.2933 9.4314v1.0674h-1.1698v-0.14623t0.0877 0q0.10236 0 0.10236 0 0.38018 0 0.64338-0.2632 0.27782-0.27782 0.29244-0.658zm0-8.1008h-0.0439q0-0.38018-0.27782-0.64339-0.27782-0.27782-0.658-0.27782 0 0-0.0877 0t-0.0877 0l-0.0146-0.14622h1.1698z"/>
    <path d="m119.94 123.5-0.0731 2.3688q-0.36556 0.59951-0.93583 1.082-0.55564 0.46791-1.3452 0.74574-0.7896 0.27782-1.8278 0.27782-1.6084-0.0146-2.8513-0.658-1.2283-0.65801-1.9155-1.8424-0.68724-1.199-0.68724-2.8367 0-1.6084 0.67262-2.7929 0.68725-1.199 1.9155-1.857 1.2429-0.658 2.9391-0.658 1.1113 0 2.0032 0.27782 0.89196 0.2632 1.5207 0.658l0.20471 2.208h-0.1316q-0.35093-1.3452-1.316-1.9886-0.95045-0.65801-2.2226-0.65801-1.2575 0-2.1641 0.59952-0.90658 0.58489-1.4037 1.6669-0.49716 1.0674-0.49716 2.5297 0 1.4476 0.48254 2.5297 0.49716 1.082 1.3745 1.6962 0.89196 0.59952 2.0764 0.62876 1.0674 0 1.9155-0.38018 0.8481-0.38018 1.4038-1.2429 0.55564-0.87734 0.74573-2.3542z"/>
    <path d="m125.93 117.3 4.489 10.382h-1.7108l-3.2608-8.5102zm-3.1438 9.4021q-0.10235 0.29245-0.0292 0.49716 0.0731 0.20471 0.23395 0.32169 0.17547 0.10235 0.35094 0.10235h0.1316v0.14623h-2.9976v-0.14623t0.0731 0q0.0585 0 0.0585 0 0.33631 0 0.68725-0.20471 0.36555-0.21933 0.59951-0.71649zm3.1438-9.4021 0.11697 1.2721-3.6556 9.1536h-0.95045l3.7579-8.788q0.0146-0.0293 0.10236-0.21934 0.10235-0.20471 0.20471-0.48253 0.11698-0.27783 0.20471-0.54103 0.0877-0.2632 0.0877-0.3948zm1.8863 6.6532v0.49716h-4.4744v-0.49716zm0.51178 2.749h1.6523q0.23396 0.49716 0.5849 0.71649 0.36555 0.20471 0.70187 0.20471 0 0 0.0585 0t0.0585 0v0.14623h-3.7433v-0.14623h0.1316q0.29244 0 0.51178-0.23395 0.21933-0.24858 0.0439-0.68725z"/>
    <path d="m134.43 117.54v10.236h-1.3599v-10.236zm3.9188 9.7238 0.11698 0.51178h-4.0796v-0.51178zm0.95045-2.0618-0.78961 2.5735h-2.5735l0.5264-0.51178q0.76036 0 1.2721-0.24858 0.51178-0.2632 0.84809-0.73112 0.33632-0.46791 0.57027-1.082zm-6.1852 1.5061v1.0674h-1.1698v-0.14623t0.0877 0q0.10236 0 0.10236 0 0.38018 0 0.64338-0.2632 0.27782-0.27782 0.29245-0.658zm0-8.1008h-0.0439q-0.0146-0.38018-0.29245-0.64339-0.2632-0.27782-0.64338-0.27782 0 0-0.10236 0-0.0877 0-0.0877 0v-0.14622h1.1698zm1.2721 0v-1.0674h1.1698v0.14622q-0.0146 0-0.10236 0-0.0877 0-0.0877 0-0.38018 0-0.65801 0.27782-0.2632 0.26321-0.27782 0.64339z"/>
   </g>
   <g fill="#009cca" stroke-width=".49849" aria-label="PROYECTOS E INGENIERIA SRL">
    <path d="m41.616 132.46h0.81752q0.52507 0 0.86405 0.16617 0.34562 0.15951 0.51843 0.44531t0.17946 0.66465q0.0066 0.33233-0.11964 0.59819-0.11964 0.26586-0.33897 0.44532-0.21269 0.17945-0.4852 0.26586-0.26586 0.0798-0.55831 0.0465-0.29245-0.0399-0.56495-0.20604v-0.0665t0.0864 7e-3q0.09305 7e-3 0.23927-0.0133 0.14622-0.0266 0.30574-0.0931 0.16616-0.0731 0.30574-0.22598 0.13958-0.15952 0.21269-0.41873 0.02659-0.0864 0.03323-0.19275 0.01329-0.10635 0.0066-0.20605-0.0066-0.43867-0.23263-0.69788-0.22598-0.26586-0.63806-0.26586h-0.56495t-0.01994-0.0598q-0.01329-0.0665-0.03323-0.12628-0.01329-0.0665-0.01329-0.0665zm0.0864 0v4.6526h-0.81088v-4.6526zm-0.79094 4.1674v0.48519h-0.53172v-0.0665q0.0066 0 0.03988 0 0.03988 0 0.04653 0 0.17281 0 0.29245-0.11964 0.12628-0.12629 0.13293-0.29909zm0-3.6822h-0.01994q0-0.17281-0.12628-0.29245-0.12628-0.12628-0.29909-0.12628-0.0066 0-0.03988 0-0.03323 0-0.03988 0l-0.0066-0.0665h0.53172zm0.771 3.6822h0.01994q0.0066 0.1728 0.12628 0.29909 0.12628 0.11964 0.29909 0.11964 0 0 0.03988 0t0.04653 0v0.0665h-0.53172z"/>
    <path d="m45.783 132.46h0.88399q0.29909 0 0.56495 0.0731 0.27251 0.0731 0.47855 0.22599 0.20604 0.15287 0.31903 0.39214 0.11964 0.23263 0.11964 0.55831 0 0.29244-0.12628 0.57824-0.12628 0.2858-0.3722 0.47855-0.24592 0.1861-0.60483 0.21269 0.17946 0.0598 0.33897 0.22598 0.16616 0.15952 0.27251 0.31903 0.0066 7e-3 0.07976 0.12629 0.07976 0.11299 0.19275 0.27915 0.11299 0.16616 0.23263 0.33233 0.12628 0.16616 0.21934 0.27915 0.14622 0.17281 0.26586 0.2858 0.12628 0.10634 0.26586 0.16616 0.13958 0.0532 0.31903 0.0532v0.0665h-0.55166q-0.34562 0-0.61812-0.0731-0.26586-0.0731-0.46526-0.21934-0.1994-0.14622-0.34562-0.36555-0.03988-0.0598-0.11299-0.17946-0.07311-0.12628-0.15952-0.27915-0.0864-0.15287-0.17281-0.29245-0.07976-0.14622-0.13958-0.25921-0.05317-0.11299-0.07311-0.15952-0.10634-0.19275-0.23263-0.31239-0.12628-0.11963-0.27251-0.13293v-0.0665q0.01329 0 0.0864 7e-3 0.07311 0 0.16616-7e-3 0.17946-7e-3 0.35891-0.0665 0.1861-0.0598 0.33233-0.21933 0.14622-0.16616 0.21269-0.45861 0.01329-0.0598 0.02659-0.15287 0.01329-0.093 0.0066-0.19275-0.01994-0.46525-0.23927-0.70453-0.21934-0.23927-0.55831-0.25257-0.12628-7e-3 -0.26586 0-0.13958 0-0.24592 0-0.0997 0-0.11964 0 0-7e-3 -0.01994-0.0731-0.01329-0.0665-0.03323-0.12628-0.01329-0.0665-0.01329-0.0665zm0.0864 0v4.6526h-0.81087v-4.6526zm-0.79093 4.1674v0.48519h-0.53172v-0.0665q0.0066 0 0.03988 0 0.03988 0 0.04653 0 0.17281 0 0.29245-0.11964 0.12628-0.12629 0.13293-0.29909zm0-3.6822h-0.01994q-0.0066-0.17281-0.13293-0.29245-0.11964-0.12628-0.29245-0.12628-0.0066 0-0.04653 0-0.03323 0-0.03988 0v-0.0665h0.53172zm0.771 3.6822h0.01994q0 0.1728 0.12628 0.29909 0.12628 0.11964 0.29909 0.11964 0.0066 0 0.03988 0 0.03988 0 0.03988 0v0.0665h-0.52507z"/>
    <path d="m51.705 132.37q0.76435 0 1.3359 0.2991 0.57825 0.29244 0.89063 0.83746 0.31239 0.54501 0.31239 1.2828t-0.31239 1.2828q-0.31239 0.54501-0.89063 0.84411-0.5716 0.29244-1.3359 0.29244-0.771 0-1.3426-0.29244-0.5716-0.2991-0.88398-0.84411-0.31239-0.54502-0.31239-1.2828t0.31239-1.2828q0.31239-0.54502 0.88398-0.83746 0.5716-0.2991 1.3426-0.2991zm0 4.5861q0.49849 0 0.86405-0.26586 0.3722-0.26586 0.5716-0.75105 0.20604-0.4852 0.20604-1.1498t-0.20604-1.1498q-0.1994-0.4852-0.5716-0.75106-0.36556-0.26586-0.86405-0.26586-0.49849 0-0.87069 0.26586-0.36556 0.26586-0.5716 0.75106-0.1994 0.48519-0.1994 1.1498t0.1994 1.1498q0.20604 0.48519 0.5716 0.75105 0.3722 0.26586 0.87069 0.26586z"/>
    <path d="m55.567 132.47 1.3426 2.4592-0.72447 0.13958-1.5686-2.5988zm1.3958 2.5057v2.1402h-0.81087v-2.1402zm1.11-2.5057h0.47855l-1.6483 2.6387-0.30574-0.0665zm-0.27251 0.4719q0.05317-0.0931 0.02659-0.1861-0.02659-0.0997-0.0997-0.15952-0.06647-0.0665-0.15952-0.0665 0 0-0.03988 0t-0.03988 0v-0.0665h1.5486v0.0665h-0.09305q-0.20604 0-0.39214 0.11964-0.17946 0.11963-0.27915 0.2725zm-1.974 0-0.93716-0.0199q-0.09305-0.15287-0.27251-0.2725-0.17946-0.11964-0.39214-0.11964h-0.09305v-0.0665h2.0139v0.0665t-0.04653 0q-0.03988 0-0.03988 0-0.14622 0-0.22598 0.13958-0.07311 0.13293-0.0066 0.2725zm0.34562 3.6888v0.48519h-0.53172v-0.0665t0.03988 0 0.04653 0q0.17281 0 0.29245-0.11964 0.12628-0.12629 0.13293-0.29909zm0.771 0h0.01994q0 0.1728 0.12628 0.29909 0.12628 0.11964 0.29909 0.11964 0 0 0.03988 0t0.03988 0v0.0665h-0.52507z"/>
    <path d="m60.512 132.46v4.6526h-0.81087v-4.6526zm1.7613 4.3934 0.11299 0.25921h-1.8943v-0.25921zm-0.25257-2.1601v0.25257h-1.5287v-0.25257zm0.31239-2.2332v0.25922h-1.8411v-0.25922zm0.40544 3.3897-0.33232 1.2628h-1.2429l0.23928-0.25921q0.33897 0 0.58489-0.11964 0.24592-0.12628 0.41208-0.35227 0.16616-0.23262 0.27251-0.53172zm-0.71782-0.91721v0.57159h-0.06647v-0.0731q0-0.20604-0.13958-0.34562-0.13958-0.13957-0.34562-0.13957v-0.0133zm0-0.79759v0.5716h-0.55166v-0.0133q0.20604-7e-3 0.34562-0.14622 0.13958-0.13958 0.13958-0.34562v-0.0665zm0.31239-1.4356v0.69123h-0.06647v-0.0931q0-0.25256-0.15952-0.41208-0.15952-0.16616-0.42538-0.17281v-0.0133zm0-0.35891v0.19274l-0.81087-0.0731q0.14622 0 0.30574-0.0199 0.16616-0.0199 0.30574-0.0465 0.13958-0.0266 0.1994-0.0532zm-2.6121 4.287v0.48519h-0.53172v-0.0665t0.03988 0q0.04652 0 0.04652 0 0.17281 0 0.29245-0.11964 0.12628-0.12629 0.13293-0.29909zm0-3.6822h-0.01994q-0.0066-0.17281-0.13293-0.29245-0.11964-0.12628-0.29245-0.12628 0 0-0.04652 0-0.03988 0-0.03988 0v-0.0665h0.53172z"/>
    <path d="m67.637 135.18 0.01329 1.11q-0.15287 0.25921-0.40544 0.4719-0.25257 0.20604-0.61813 0.33232-0.35891 0.11964-0.84411 0.11964-0.771-7e-3 -1.3559-0.29909-0.58489-0.29245-0.91057-0.83082-0.31903-0.54501-0.31903-1.2961 0-0.73777 0.31903-1.2761 0.31903-0.54502 0.90392-0.83746 0.58489-0.2991 1.3891-0.2991 0.51843 0 0.93051 0.11964 0.41208 0.11299 0.69788 0.27251l0.05317 1.0701h-0.05982q-0.16616-0.63141-0.59154-0.91721-0.41873-0.29245-0.98368-0.29245-0.54501 0-0.9438 0.26586-0.39214 0.25921-0.61148 0.74441-0.21269 0.47855-0.21269 1.1366 0 0.65801 0.20604 1.1498 0.21269 0.48519 0.59154 0.7577 0.3855 0.26586 0.89728 0.27915 0.49849 0 0.86405-0.16616 0.3722-0.17281 0.60483-0.56495 0.23928-0.39215 0.33233-1.0502z"/>
    <path d="m70.574 132.48v4.6326h-0.81087v-4.6326zm1.6483-0.0266v0.25256h-4.1142v-0.25256zm0 0.23262v0.69789l-0.06647-7e-3v-0.0864q0-0.25922-0.15952-0.41873-0.15952-0.15952-0.41873-0.16617v-0.0199zm0-0.35226v0.19275l-0.81087-0.0731q0.14622 0 0.30574-0.0199 0.16616-0.0199 0.30574-0.0465t0.1994-0.0532zm-2.4393 4.2936v0.48519h-0.53172v-0.0665t0.03988 0q0.04653 0 0.04653 0 0.17281 0 0.29245-0.11964 0.12628-0.12629 0.13293-0.29909zm0.771 0h0.01994q0.0066 0.1728 0.12628 0.29909 0.12628 0.11964 0.29909 0.11964 0 0 0.03988 0 0.04653 0 0.04653 0v0.0665h-0.53172zm-1.8012-3.9414v0.0199q-0.25921 7e-3 -0.41873 0.16617-0.15952 0.15951-0.15952 0.41873v0.0864l-0.06646 7e-3v-0.69789zm-0.64471-0.35226q0.06646 0.0266 0.1994 0.0532 0.13958 0.0266 0.30574 0.0465 0.16616 0.0199 0.30574 0.0199l-0.81087 0.0731z"/>
    <path d="m75.134 132.37q0.76435 0 1.3359 0.2991 0.57825 0.29244 0.89063 0.83746 0.31239 0.54501 0.31239 1.2828t-0.31239 1.2828q-0.31239 0.54501-0.89063 0.84411-0.5716 0.29244-1.3359 0.29244-0.771 0-1.3426-0.29244-0.5716-0.2991-0.88399-0.84411-0.31239-0.54502-0.31239-1.2828t0.31239-1.2828q0.31239-0.54502 0.88399-0.83746 0.5716-0.2991 1.3426-0.2991zm0 4.5861q0.49849 0 0.86405-0.26586 0.3722-0.26586 0.5716-0.75105 0.20604-0.4852 0.20604-1.1498t-0.20604-1.1498q-0.1994-0.4852-0.5716-0.75106-0.36556-0.26586-0.86405-0.26586t-0.87069 0.26586q-0.36556 0.26586-0.5716 0.75106-0.1994 0.48519-0.1994 1.1498t0.1994 1.1498q0.20604 0.48519 0.5716 0.75105 0.3722 0.26586 0.87069 0.26586z"/>
    <path d="m79.753 132.37q0.12628 0 0.29909 0.0133 0.17281 0.0133 0.34562 0.0399 0.17946 0.0199 0.31903 0.0465 0.13958 0.0199 0.19275 0.0465l-0.05317 0.8441h-0.06646q0-0.33897-0.24592-0.53837-0.23927-0.19939-0.62477-0.19939-0.3855 0-0.61812 0.19939-0.22598 0.1994-0.23263 0.4852-0.01329 0.16616 0.09305 0.32568 0.11299 0.15287 0.29909 0.2858l1.2828 0.95045q0.27251 0.17946 0.39879 0.43867 0.12628 0.25257 0.11299 0.5716-0.01994 0.61148-0.44532 0.97039-0.41873 0.35891-1.1432 0.35891-0.24592 0-0.50514-0.0465-0.25257-0.0399-0.46526-0.12629-0.21269-0.0931-0.33897-0.21933-0.03988-0.13293-0.03323-0.31904 0.0066-0.19274 0.05317-0.39214 0.04653-0.20604 0.11299-0.34562h0.05982q-0.02659 0.33897 0.11299 0.61813 0.13958 0.2725 0.40544 0.43202 0.27251 0.15287 0.63806 0.14622 0.41208-0.0133 0.658-0.23262 0.25257-0.21934 0.25257-0.56496 0-0.19939-0.10634-0.35891-0.10634-0.16616-0.33233-0.29909l-1.203-0.91056q-0.30574-0.1994-0.43867-0.47855-0.12628-0.2858-0.10634-0.59154 0.01994-0.31903 0.17946-0.57825 0.15952-0.26586 0.44532-0.41873 0.29245-0.15287 0.69788-0.15287zm1.1631 0.0665-0.0066 0.13957h-0.69124v-0.13957z"/>
    <path d="m84.891 132.46v4.6526h-0.81087v-4.6526zm1.7613 4.3934 0.11299 0.25921h-1.8943v-0.25921zm-0.25257-2.1601v0.25257h-1.5287v-0.25257zm0.31239-2.2332v0.25922h-1.8411v-0.25922zm0.40544 3.3897-0.33232 1.2628h-1.2429l0.23928-0.25921q0.33897 0 0.58489-0.11964 0.24592-0.12628 0.41208-0.35227 0.16616-0.23262 0.27251-0.53172zm-0.71782-0.91721v0.57159h-0.06647v-0.0731q0-0.20604-0.13958-0.34562-0.13958-0.13957-0.34562-0.13957v-0.0133zm0-0.79759v0.5716h-0.55166v-0.0133q0.20604-7e-3 0.34562-0.14622 0.13958-0.13958 0.13958-0.34562v-0.0665zm0.31239-1.4356v0.69123h-0.06647v-0.0931q0-0.25256-0.15952-0.41208-0.15952-0.16616-0.42538-0.17281v-0.0133zm0-0.35891v0.19274l-0.81087-0.0731q0.14622 0 0.30574-0.0199 0.16616-0.0199 0.30574-0.0465 0.13958-0.0266 0.1994-0.0532zm-2.6121 4.287v0.48519h-0.53172v-0.0665t0.03988 0q0.04653 0 0.04653 0 0.17281 0 0.29245-0.11964 0.12628-0.12629 0.13293-0.29909zm0-3.6822h-0.01994q-0.0066-0.17281-0.13293-0.29245-0.11964-0.12628-0.29245-0.12628 0 0-0.04653 0-0.03988 0-0.03988 0v-0.0665h0.53172z"/>
    <path d="m90.627 132.46v4.6526h-0.81087v-4.6526zm-0.79093 4.1674v0.48519h-0.53172v-0.0665t0.03988 0q0.04652 0 0.04652 0 0.17281 0 0.29245-0.11964 0.12628-0.12629 0.13293-0.29909zm0-3.6822h-0.01994q-0.0066-0.17281-0.13293-0.29245-0.11964-0.12628-0.29245-0.12628 0 0-0.04652 0-0.03988 0-0.03988 0v-0.0665h0.53172zm0.771 3.6822h0.01994q0.0066 0.1728 0.12628 0.29909 0.12628 0.11964 0.29909 0.11964 0 0 0.03988 0t0.04653 0v0.0665h-0.53172zm0-3.6822v-0.4852h0.53172v0.0665q-0.0066 0-0.04653 0-0.03988 0-0.03988 0-0.17281 0-0.29909 0.12628-0.11964 0.11964-0.12628 0.29245z"/>
    <path d="m92.202 132.36 4.1142 4.0677 0.07311 0.77764-4.1142-4.061zm0.02659 4.2804v0.4719h-0.55166v-0.0665t0.05982 0 0.06646 0q0.16616 0 0.2858-0.11964 0.11964-0.11964 0.11964-0.2858zm0.71782 0q0 0.16616 0.11964 0.2858 0.11964 0.11964 0.2858 0.11964 0.0066 0 0.06647 0 0.05982 0 0.05982 0v0.0665h-0.55166v-0.4719zm-0.74441-4.2804 0.73776 0.80422 0.0066 3.948h-0.73776v-3.9214q0-0.35891-0.03988-0.59154-0.03323-0.23927-0.03323-0.23927zm4.174 0.0997v3.8949q0 0.23927 0.01994 0.43202t0.03323 0.30574q0.01994 0.11299 0.01994 0.11299h-0.05982l-0.73776-0.83081v-3.9148zm0.53172 0v0.0665t-0.05982 0-0.05982 0q-0.16616 0-0.2858 0.11964-0.11964 0.11299-0.12628 0.2858h-0.01994v-0.47191zm-1.7946 0h0.55166v0.47191h-0.01329q-0.0066-0.17281-0.12628-0.2858-0.11299-0.11964-0.2858-0.11964 0 0-0.05982 0t-0.06647 0z"/>
    <path d="m101.93 135.26v1.0967q-0.15287 0.1994-0.45197 0.39879-0.29244 0.1994-0.71117 0.33233-0.41873 0.12628-0.95045 0.12628-0.73112-7e-3 -1.2894-0.29909-0.55831-0.29909-0.87069-0.83746-0.30574-0.54502-0.30574-1.2894 0-0.73112 0.30574-1.2761 0.30574-0.54502 0.87069-0.83746 0.56495-0.2991 1.316-0.2991 0.36556 0 0.69124 0.0532 0.33232 0.0532 0.60483 0.14623 0.27915 0.0864 0.4719 0.19275l0.0532 1.0701h-0.0598q-0.11964-0.43202-0.35891-0.69123-0.23263-0.26586-0.55831-0.39215-0.32568-0.12628-0.70453-0.12628-0.55166 0-0.9438 0.27251-0.3855 0.26586-0.59154 0.7577-0.20604 0.48519-0.20604 1.1565 0 0.65136 0.19275 1.1366 0.1994 0.47855 0.56495 0.74441 0.3722 0.25922 0.87734 0.26586 0.26586 0 0.50514-0.0731 0.23927-0.0731 0.43202-0.21269 0.1994-0.14622 0.31239-0.34561l7e-3 -1.0701q0-0.2991-0.33897-0.2991h-0.10634v-0.0665h1.6749v0.0665h-0.0997q-0.34562 0-0.33232 0.2991z"/>
    <path d="m103.97 132.46v4.6526h-0.81087v-4.6526zm1.7613 4.3934 0.11299 0.25921h-1.8943v-0.25921zm-0.25257-2.1601v0.25257h-1.5287v-0.25257zm0.31239-2.2332v0.25922h-1.8411v-0.25922zm0.40543 3.3897-0.33232 1.2628h-1.2429l0.23928-0.25921q0.33897 0 0.58489-0.11964 0.24592-0.12628 0.41208-0.35227 0.16617-0.23262 0.27251-0.53172zm-0.71782-0.91721v0.57159h-0.0665v-0.0731q0-0.20604-0.13958-0.34562-0.13958-0.13957-0.34562-0.13957v-0.0133zm0-0.79759v0.5716h-0.55166v-0.0133q0.20604-7e-3 0.34562-0.14622 0.13958-0.13958 0.13958-0.34562v-0.0665zm0.31239-1.4356v0.69123h-0.0665v-0.0931q0-0.25256-0.15951-0.41208-0.15952-0.16616-0.42538-0.17281v-0.0133zm0-0.35891v0.19274l-0.81088-0.0731q0.14623 0 0.30574-0.0199 0.16617-0.0199 0.30574-0.0465 0.13958-0.0266 0.1994-0.0532zm-2.6121 4.287v0.48519h-0.53172v-0.0665t0.0399 0q0.0465 0 0.0465 0 0.17281 0 0.29245-0.11964 0.12628-0.12629 0.13293-0.29909zm0-3.6822h-0.0199q-7e-3 -0.17281-0.13293-0.29245-0.11964-0.12628-0.29245-0.12628 0 0-0.0465 0-0.0399 0-0.0399 0v-0.0665h0.53172z"/>
    <path d="m107.12 132.36 4.1142 4.0677 0.0731 0.77764-4.1142-4.061zm0.0266 4.2804v0.4719h-0.55166v-0.0665t0.0598 0 0.0665 0q0.16616 0 0.2858-0.11964 0.11963-0.11964 0.11963-0.2858zm0.71783 0q0 0.16616 0.11963 0.2858 0.11964 0.11964 0.2858 0.11964 7e-3 0 0.0665 0 0.0598 0 0.0598 0v0.0665h-0.55169v-0.4719zm-0.74441-4.2804 0.73776 0.80422 7e-3 3.948h-0.73777v-3.9214q0-0.35891-0.0399-0.59154-0.0332-0.23927-0.0332-0.23927zm4.174 0.0997v3.8949q0 0.23927 0.0199 0.43202t0.0332 0.30574q0.0199 0.11299 0.0199 0.11299h-0.0598l-0.73776-0.83081v-3.9148zm0.53172 0v0.0665t-0.0598 0-0.0598 0q-0.16616 0-0.2858 0.11964-0.11964 0.11299-0.12628 0.2858h-0.0199v-0.47191zm-1.7946 0h0.55166v0.47191h-0.0133q-7e-3 -0.17281-0.12629-0.2858-0.11299-0.11964-0.2858-0.11964 0 0-0.0598 0t-0.0665 0z"/>
    <path d="m113.61 132.46v4.6526h-0.81088v-4.6526zm-0.79094 4.1674v0.48519h-0.53172v-0.0665t0.0399 0q0.0465 0 0.0465 0 0.17281 0 0.29245-0.11964 0.12628-0.12629 0.13293-0.29909zm0-3.6822h-0.0199q-7e-3 -0.17281-0.13293-0.29245-0.11964-0.12628-0.29245-0.12628 0 0-0.0465 0-0.0399 0-0.0399 0v-0.0665h0.53172zm0.771 3.6822h0.0199q7e-3 0.1728 0.12628 0.29909 0.12628 0.11964 0.29909 0.11964 0 0 0.0399 0t0.0465 0v0.0665h-0.53172zm0-3.6822v-0.4852h0.53172v0.0665q-7e-3 0-0.0465 0-0.0399 0-0.0399 0-0.17281 0-0.29909 0.12628-0.11964 0.11964-0.12628 0.29245z"/>
    <path d="m116.07 132.46v4.6526h-0.81087v-4.6526zm1.7613 4.3934 0.11299 0.25921h-1.8943v-0.25921zm-0.25257-2.1601v0.25257h-1.5287v-0.25257zm0.31238-2.2332v0.25922h-1.8411v-0.25922zm0.40544 3.3897-0.33232 1.2628h-1.2429l0.23927-0.25921q0.33898 0 0.5849-0.11964 0.24592-0.12628 0.41208-0.35227 0.16616-0.23262 0.27251-0.53172zm-0.71782-0.91721v0.57159h-0.0665v-0.0731q0-0.20604-0.13957-0.34562-0.13958-0.13957-0.34562-0.13957v-0.0133zm0-0.79759v0.5716h-0.55166v-0.0133q0.20604-7e-3 0.34562-0.14622 0.13957-0.13958 0.13957-0.34562v-0.0665zm0.31238-1.4356v0.69123h-0.0665v-0.0931q0-0.25256-0.15952-0.41208-0.15951-0.16616-0.42537-0.17281v-0.0133zm0-0.35891v0.19274l-0.81087-0.0731q0.14622 0 0.30574-0.0199 0.16616-0.0199 0.30574-0.0465t0.19939-0.0532zm-2.6121 4.287v0.48519h-0.53172v-0.0665t0.0399 0q0.0465 0 0.0465 0 0.17281 0 0.29245-0.11964 0.12628-0.12629 0.13293-0.29909zm0-3.6822h-0.0199q-7e-3 -0.17281-0.13293-0.29245-0.11964-0.12628-0.29245-0.12628 0 0-0.0465 0-0.0399 0-0.0399 0v-0.0665h0.53172z"/>
    <path d="m120.03 132.46h0.88399q0.29909 0 0.56495 0.0731 0.27251 0.0731 0.47855 0.22599 0.20604 0.15287 0.31903 0.39214 0.11964 0.23263 0.11964 0.55831 0 0.29244-0.12628 0.57824-0.12629 0.2858-0.37221 0.47855-0.24592 0.1861-0.60483 0.21269 0.17946 0.0598 0.33897 0.22598 0.16616 0.15952 0.27251 0.31903 7e-3 7e-3 0.0798 0.12629 0.0798 0.11299 0.19275 0.27915 0.11299 0.16616 0.23262 0.33233 0.12629 0.16616 0.21934 0.27915 0.14622 0.17281 0.26586 0.2858 0.12628 0.10634 0.26586 0.16616 0.13958 0.0532 0.31903 0.0532v0.0665h-0.55166q-0.34562 0-0.61812-0.0731-0.26586-0.0731-0.46526-0.21934-0.19939-0.14622-0.34562-0.36555-0.0399-0.0598-0.11299-0.17946-0.0731-0.12628-0.15952-0.27915-0.0864-0.15287-0.1728-0.29245-0.0798-0.14622-0.13958-0.25921-0.0532-0.11299-0.0731-0.15952-0.10635-0.19275-0.23263-0.31239-0.12628-0.11963-0.27251-0.13293v-0.0665q0.0133 0 0.0864 7e-3 0.0731 0 0.16616-7e-3 0.17946-7e-3 0.35891-0.0665 0.1861-0.0598 0.33233-0.21933 0.14622-0.16616 0.21269-0.45861 0.0133-0.0598 0.0266-0.15287 0.0133-0.093 7e-3 -0.19275-0.0199-0.46525-0.23928-0.70453-0.21933-0.23927-0.5583-0.25257-0.12629-7e-3 -0.26586 0-0.13958 0-0.24592 0-0.0997 0-0.11964 0 0-7e-3 -0.0199-0.0731-0.0133-0.0665-0.0332-0.12628-0.0133-0.0665-0.0133-0.0665zm0.0864 0v4.6526h-0.81088v-4.6526zm-0.79094 4.1674v0.48519h-0.53172v-0.0665q7e-3 0 0.0399 0 0.0399 0 0.0465 0 0.17281 0 0.29244-0.11964 0.12629-0.12629 0.13293-0.29909zm0-3.6822h-0.0199q-7e-3 -0.17281-0.13293-0.29245-0.11963-0.12628-0.29244-0.12628-7e-3 0-0.0465 0-0.0332 0-0.0399 0v-0.0665h0.53172zm0.771 3.6822h0.0199q0 0.1728 0.12628 0.29909 0.12629 0.11964 0.29909 0.11964 7e-3 0 0.0399 0 0.0399 0 0.0399 0v0.0665h-0.52507z"/>
    <path d="m124.8 132.46v4.6526h-0.81088v-4.6526zm-0.79094 4.1674v0.48519h-0.53172v-0.0665t0.0399 0q0.0465 0 0.0465 0 0.17281 0 0.29244-0.11964 0.12629-0.12629 0.13293-0.29909zm0-3.6822h-0.0199q-7e-3 -0.17281-0.13293-0.29245-0.11963-0.12628-0.29244-0.12628 0 0-0.0465 0-0.0399 0-0.0399 0v-0.0665h0.53172zm0.771 3.6822h0.0199q7e-3 0.1728 0.12628 0.29909 0.12629 0.11964 0.29909 0.11964 0 0 0.0399 0t0.0465 0v0.0665h-0.53172zm0-3.6822v-0.4852h0.53172v0.0665q-7e-3 0-0.0465 0-0.0399 0-0.0399 0-0.1728 0-0.29909 0.12628-0.11964 0.11964-0.12628 0.29245z"/>
    <path d="m127.95 132.34 2.1003 4.7323h-0.98368l-1.429-3.6689zm-1.429 4.287q-0.0532 0.13293-0.0199 0.22598 0.0332 0.0931 0.11299 0.14622 0.0798 0.0465 0.15951 0.0465h0.0598v0.0665h-1.3958v-0.0665t0.0332 0q0.0266 0 0.0266 0 0.15287 0 0.31239-0.0931 0.16616-0.0997 0.27251-0.32567zm1.429-4.287 0.0332 0.69788-1.655 4.0544h-0.45196l1.7148-3.9414q0.0133-0.0266 0.0532-0.12628 0.0465-0.10635 0.0997-0.23928 0.0598-0.13293 0.0997-0.25257 0.0399-0.12628 0.0465-0.19274zm0.77764 3.1106v0.25257h-2.0006v-0.25257zm0.16616 1.1764h0.9571q0.10634 0.22598 0.26586 0.32567 0.16616 0.0931 0.31903 0.0931 0 0 0.0266 0t0.0266 0v0.0665h-1.9075v-0.0665h0.0598q0.12629 0 0.22599-0.10635 0.0997-0.11299 0.0266-0.31238z"/>
    <path d="m133.78 132.37q0.12628 0 0.29909 0.0133t0.34562 0.0399q0.17946 0.0199 0.31903 0.0465 0.13958 0.0199 0.19275 0.0465l-0.0532 0.8441h-0.0665q0-0.33897-0.24592-0.53837-0.23928-0.19939-0.62478-0.19939-0.38549 0-0.61812 0.19939-0.22598 0.1994-0.23263 0.4852-0.0133 0.16616 0.093 0.32568 0.11299 0.15287 0.29909 0.2858l1.2828 0.95045q0.27251 0.17946 0.39879 0.43867 0.12629 0.25257 0.11299 0.5716-0.0199 0.61148-0.44531 0.97039-0.41873 0.35891-1.1432 0.35891-0.24592 0-0.50514-0.0465-0.25257-0.0399-0.46525-0.12629-0.21269-0.0931-0.33898-0.21933-0.0399-0.13293-0.0332-0.31904 7e-3 -0.19274 0.0532-0.39214 0.0465-0.20604 0.11299-0.34562h0.0598q-0.0266 0.33897 0.11299 0.61813 0.13958 0.2725 0.40544 0.43202 0.27251 0.15287 0.63807 0.14622 0.41208-0.0133 0.658-0.23262 0.25257-0.21934 0.25257-0.56496 0-0.19939-0.10635-0.35891-0.10634-0.16616-0.33232-0.29909l-1.203-0.91057q-0.30574-0.1994-0.43867-0.47855-0.12628-0.2858-0.10634-0.59154 0.0199-0.31903 0.17945-0.57825 0.15952-0.26586 0.44532-0.41873 0.29244-0.15287 0.69788-0.15287zm1.1631 0.0665-7e-3 0.13957h-0.69123v-0.13957z"/>
    <path d="m137.16 132.46h0.88398q0.2991 0 0.56496 0.0731 0.2725 0.0731 0.47855 0.22599 0.20604 0.15287 0.31903 0.39214 0.11964 0.23263 0.11964 0.55831 0 0.29244-0.12629 0.57824-0.12628 0.2858-0.3722 0.47855-0.24592 0.1861-0.60483 0.21269 0.17945 0.0598 0.33897 0.22598 0.16616 0.15952 0.2725 0.31903 7e-3 7e-3 0.0798 0.12629 0.0798 0.11299 0.19275 0.27915 0.11299 0.16616 0.23263 0.33233 0.12628 0.16616 0.21933 0.27915 0.14623 0.17281 0.26586 0.2858 0.12629 0.10634 0.26586 0.16616 0.13958 0.0532 0.31904 0.0532v0.0665h-0.55166q-0.34562 0-0.61813-0.0731-0.26586-0.0731-0.46525-0.21934-0.1994-0.14622-0.34562-0.36555-0.0399-0.0598-0.11299-0.17946-0.0731-0.12628-0.15952-0.27915-0.0864-0.15287-0.17281-0.29245-0.0798-0.14622-0.13958-0.25921-0.0532-0.11299-0.0731-0.15952-0.10634-0.19275-0.23263-0.31239-0.12628-0.11963-0.2725-0.13293v-0.0665q0.0133 0 0.0864 7e-3 0.0731 0 0.16617-7e-3 0.17945-7e-3 0.35891-0.0665 0.1861-0.0598 0.33232-0.21933 0.14623-0.16616 0.21269-0.45861 0.0133-0.0598 0.0266-0.15287 0.0133-0.093 7e-3 -0.19275-0.0199-0.46525-0.23927-0.70453-0.21934-0.23927-0.55831-0.25257-0.12628-7e-3 -0.26586 0-0.13958 0-0.24592 0-0.0997 0-0.11964 0 0-7e-3 -0.0199-0.0731-0.0133-0.0665-0.0332-0.12628-0.0133-0.0665-0.0133-0.0665zm0.0864 0v4.6526h-0.81087v-4.6526zm-0.79093 4.1674v0.48519h-0.53172v-0.0665q7e-3 0 0.0399 0 0.0399 0 0.0465 0 0.17281 0 0.29245-0.11964 0.12628-0.12629 0.13293-0.29909zm0-3.6822h-0.0199q-7e-3 -0.17281-0.13293-0.29245-0.11964-0.12628-0.29245-0.12628-7e-3 0-0.0465 0-0.0332 0-0.0399 0v-0.0665h0.53172zm0.77099 3.6822h0.0199q0 0.1728 0.12629 0.29909 0.12628 0.11964 0.29909 0.11964 7e-3 0 0.0399 0 0.0399 0 0.0399 0v0.0665h-0.52508z"/>
    <path d="m141.92 132.46v4.6526h-0.81087v-4.6526zm1.7613 4.3934 0.11299 0.25921h-1.8943v-0.25921zm0.46525-1.0036-0.33232 1.2628h-1.2429l0.23927-0.25921q0.33898 0 0.5849-0.11964 0.24592-0.12628 0.41208-0.35227 0.16616-0.23262 0.27251-0.53172zm-3.0175 0.77765v0.48519h-0.53172v-0.0665t0.0399 0q0.0465 0 0.0465 0 0.17281 0 0.29245-0.11964 0.12628-0.12629 0.13293-0.29909zm0-3.6822h-0.0199q-7e-3 -0.17281-0.13293-0.29245-0.11964-0.12628-0.29245-0.12628 0 0-0.0465 0-0.0399 0-0.0399 0v-0.0665h0.53172zm0.77099 0v-0.4852h0.53172v0.0665q-7e-3 0-0.0465 0-0.0399 0-0.0399 0-0.17281 0-0.2991 0.12628-0.11963 0.11964-0.12628 0.29245z"/>
   </g>
   <path d="m86.227 81.219v4.0685l13.281 7.2394v11.724c0.0052-2e-3 1.2299-0.46271 6.1688-3.1858v-7.293h3.1243z" fill="#009cca"/>
   <g>
    <rect x="83.881" y="92.645" width="4.1273" height="4.1273" stop-color="#000000"/>
    <rect x="89.945" y="92.645" width="4.1273" height="4.1273" stop-color="#000000"/>
    <rect x="89.945" y="98.708" width="4.1273" height="4.1273" stop-color="#000000"/>
    <rect x="83.881" y="98.708" width="4.1273" height="4.1273" stop-color="#000000"/>
   </g>
   <path d="m78.799 94.323c-9.6189 10.923-8.0243 19.824 7.2448 18.862 9.27-0.96793 18.834-5.8339 25.109-15.084-15.484 12.91-35.407 14.478-34.417 3.5337 0.2218-2.4519 0.9134-4.5938 2.0627-7.3117" fill="#184086"/>
  </g>
 </g>
</svg>
