<?xml version="1.0" encoding="UTF-8" standalone="no"?>
<!-- Created with Inkscape (http://www.inkscape.org/) -->

<svg
   width="100.0001mm"
   height="99.99958mm"
   viewBox="0 0 100.0001 99.99958"
   version="1.1"
   id="svg5"
   xml:space="preserve"
   inkscape:version="1.2.2 (732a01da63, 2022-12-09)"
   sodipodi:docname="foursquare.svg"
   xmlns:inkscape="http://www.inkscape.org/namespaces/inkscape"
   xmlns:sodipodi="http://sodipodi.sourceforge.net/DTD/sodipodi-0.dtd"
   xmlns="http://www.w3.org/2000/svg"
   xmlns:svg="http://www.w3.org/2000/svg"><sodipodi:namedview
     id="namedview7"
     pagecolor="#ffffff"
     bordercolor="#000000"
     borderopacity="0.25"
     inkscape:showpageshadow="2"
     inkscape:pageopacity="0.0"
     inkscape:pagecheckerboard="0"
     inkscape:deskcolor="#d1d1d1"
     inkscape:document-units="mm"
     showgrid="false"
     inkscape:zoom="0.73851712"
     inkscape:cx="-20.988004"
     inkscape:cy="269.45889"
     inkscape:window-width="1920"
     inkscape:window-height="1009"
     inkscape:window-x="1912"
     inkscape:window-y="-8"
     inkscape:window-maximized="1"
     inkscape:current-layer="layer1" /><defs
     id="defs2" /><g
     inkscape:label="Layer 1"
     inkscape:groupmode="layer"
     id="layer1"
     transform="translate(-22.799642,-114.78059)"><path
       id="rect480"
       style="fill:#33cc38;fill-opacity:1;stroke-width:0.148028;stroke-opacity:0.238298"
       d="m 33.419666,114.78059 c -5.885086,0.0109 -10.620024,4.75194 -10.620024,10.63966 v 39.35987 h 50.000049 v -49.99953 z" /><path
       id="rect540"
       style="fill:#cc333f;fill-opacity:1;stroke-width:0.148028;stroke-opacity:0.238298"
       d="m 72.799691,164.78012 v 50.00005 h 39.360389 c 5.89448,0 10.63966,-4.74518 10.63966,-10.63966 v -39.36039 z" /><path
       id="rect542"
       style="fill:#c3cc33;fill-opacity:1;stroke-width:0.148028;stroke-opacity:0.238298"
       d="m 22.799642,164.78012 v 39.36039 c 0,5.89448 4.74518,10.63966 10.639661,10.63966 h 39.360388 v -50.00005 z" /><path
       id="rect544"
       style="fill:#3733cc;fill-opacity:1;stroke-width:0.148028;stroke-opacity:0.238298"
       d="m 72.799691,114.78059 v 49.99953 h 50.000049 v -39.35987 c 0,-5.88771 -4.73443,-10.62878 -10.61951,-10.63966 z" /><path
       id="path598"
       style="fill:#ffffff;stroke-width:0.12;stroke-opacity:0.238298"
       d="m 72.799472,137.76079 a 26.470562,27.019506 0 0 0 -26.470221,27.01954 26.470562,27.019506 0 0 0 26.470221,27.01954 26.470562,27.019506 0 0 0 26.47074,-27.01954 26.470562,27.019506 0 0 0 -26.47074,-27.01954 z m 0,2.70216 a 23.823505,24.317556 0 0 1 23.82387,24.31738 23.823505,24.317556 0 0 1 -23.82387,24.31738 23.823505,24.317556 0 0 1 -23.823354,-24.31738 23.823505,24.317556 0 0 1 23.823354,-24.31738 z" /><path
       id="rect1264"
       style="fill:#3733cc;fill-opacity:1;stroke-width:0.148028;stroke-opacity:0.238298"
       d="m 48.976118,164.78033 a 23.823505,24.317556 0 0 0 23.823354,24.31738 v -24.31738 z" /><path
       id="rect1269"
       style="fill:#cc333f;fill-opacity:1;stroke-width:0.148028;stroke-opacity:0.238298"
       d="M 72.799472,140.46295 A 23.823505,24.317556 0 0 0 48.976118,164.78033 H 72.799472 Z" /><path
       id="rect1274"
       style="fill:#c3cc33;fill-opacity:1;stroke-width:0.148028;stroke-opacity:0.238298"
       d="m 72.799531,140.46297 v 24.31738 h 23.82387 a 23.823505,24.317556 0 0 0 -23.82387,-24.31738 z" /><path
       id="rect1279"
       style="fill:#33cc38;fill-opacity:1;stroke-width:0.148028;stroke-opacity:0.238298"
       d="m 72.799472,164.78033 v 24.31738 a 23.823505,24.317556 0 0 0 23.82387,-24.31738 z" /><ellipse
       style="fill:#ffffff;fill-opacity:1;stroke-width:0.054;stroke-opacity:0.238298"
       id="ellipse1284"
       cx="72.799713"
       cy="164.78035"
       rx="11.911753"
       ry="12.158778" /><rect
       style="fill:#ffffff;fill-opacity:1;stroke-width:0.0675827;stroke-opacity:0.238298"
       id="rect2754"
       width="3.0452197"
       height="99.99958"
       x="71.277084"
       y="114.78059" /><rect
       style="fill:#ffffff;fill-opacity:1;stroke-width:0.0675827;stroke-opacity:0.238298"
       id="rect2756"
       width="3.0452197"
       height="99.99958"
       x="163.25777"
       y="-122.79948"
       transform="rotate(90)" /></g></svg>
