<?xml version="1.0" encoding="UTF-8" standalone="no"?>
<svg
   xmlns:dc="http://purl.org/dc/elements/1.1/"
   xmlns:cc="http://creativecommons.org/ns#"
   xmlns:rdf="http://www.w3.org/1999/02/22-rdf-syntax-ns#"
   xmlns:svg="http://www.w3.org/2000/svg"
   xmlns="http://www.w3.org/2000/svg"
   xmlns:sodipodi="http://sodipodi.sourceforge.net/DTD/sodipodi-0.dtd"
   xmlns:inkscape="http://www.inkscape.org/namespaces/inkscape"
   width="252.94284mm"
   height="252.53267mm"
   viewBox="0 0 252.94284 252.53267"
   version="1.1"
   id="svg8"
   inkscape:version="1.0.2 (e86c870879, 2021-01-15)"
   sodipodi:docname="sunrise.svg"
   inkscape:export-filename="/home/tidalsites/Inkscape/sunrise.png"
   inkscape:export-xdpi="7.5300002"
   inkscape:export-ydpi="7.5300002">
  <defs
     id="defs2" />
  <sodipodi:namedview
     id="base"
     pagecolor="#ffffff"
     bordercolor="#666666"
     borderopacity="1.0"
     inkscape:pageopacity="0.0"
     inkscape:pageshadow="2"
     inkscape:zoom="0.31024178"
     inkscape:cx="338.33313"
     inkscape:cy="628.168"
     inkscape:document-units="mm"
     inkscape:current-layer="layer1"
     inkscape:document-rotation="0"
     showgrid="false"
     inkscape:window-width="1410"
     inkscape:window-height="908"
     inkscape:window-x="0"
     inkscape:window-y="0"
     inkscape:window-maximized="1"
     fit-margin-top="0"
     fit-margin-left="0"
     fit-margin-right="0"
     fit-margin-bottom="0" />
  <metadata
     id="metadata5">
    <rdf:RDF>
      <cc:Work
         rdf:about="">
        <dc:format>image/svg+xml</dc:format>
        <dc:type
           rdf:resource="http://purl.org/dc/dcmitype/StillImage" />
        <dc:title></dc:title>
      </cc:Work>
    </rdf:RDF>
  </metadata>
  <g
     inkscape:label="Layer 1"
     inkscape:groupmode="layer"
     id="layer1"
     transform="translate(18.31531,144.76673)">
    <g
       id="g1182">
      <g
         id="path5247"
         transform="translate(-458.38863,886.94358)" />
      <g
         id="g8547"
         style="opacity:0.491429"
         transform="matrix(-1,0,0,1,706.78717,886.94358)" />
      <ellipse
         style="fill:#000000;fill-opacity:0;stroke:#ff6600;stroke-width:4.99999;stroke-linecap:round;stroke-linejoin:round;stroke-dasharray:none;stroke-opacity:1"
         id="path13901"
         cx="108.15611"
         cy="-18.500389"
         rx="123.97143"
         ry="123.76634" />
      <path
         id="path8907"
         style="fill:#ff6600;stroke:#ff6600;stroke-width:2.64583;stroke-linecap:round;stroke-linejoin:round;stroke-dasharray:none;fill-opacity:1;stroke-opacity:1"
         d="M 101.6454,39.936369 A 58.592214,58.592214 0 0 1 43.053188,-18.655845 58.592214,58.592214 0 0 1 101.6454,-77.24806 a 58.592214,58.592214 0 0 1 58.59222,58.592215" />
      <path
         id="path8909"
         style="fill:#ff6600;fill-opacity:1;stroke:#ff6600;stroke-width:2.64583;stroke-linecap:round;stroke-linejoin:round;stroke-opacity:1"
         d="M 115.50099,-81.964794 H 87.789828 c -1.385559,0 12.470022,-23.796696 13.855582,-23.796696 1.38555,0 15.24114,23.796696 13.85558,23.796696 z" />
      <path
         id="path8911"
         style="fill:#ff6600;fill-opacity:1;stroke:#ff6600;stroke-width:2.64583;stroke-linecap:round;stroke-linejoin:round;stroke-opacity:1"
         d="m 156.20896,-53.624662 -19.59474,-19.594742 c -0.97974,-0.979741 25.64446,-8.009182 26.62419,-7.029449 0.97973,0.979733 -6.04971,27.603932 -7.02945,26.624191 z" />
      <path
         id="path8913"
         style="fill:#ff6600;fill-opacity:1;stroke:#ff6600;stroke-width:2.64583;stroke-linecap:round;stroke-linejoin:round;stroke-opacity:1"
         d="M 66.676586,35.907714 47.081844,16.312972 c -0.979733,-0.979742 -8.009182,25.644458 -7.029449,26.624191 0.979732,0.979732 27.603932,-6.049708 26.624191,-7.029449 z" />
      <path
         id="path8915"
         style="fill:#ff6600;fill-opacity:1;stroke:#ff6600;stroke-width:2.64583;stroke-linecap:round;stroke-linejoin:round;stroke-opacity:1"
         d="M 38.336454,-4.8002709 V -32.511419 c 0,-1.38556 -23.796718,12.470015 -23.796718,13.855574 0,1.38555 23.796718,15.2411334 23.796718,13.8555741 z" />
      <path
         id="path8917"
         style="fill:none;fill-opacity:0.68662;stroke:#000000;stroke-width:2.64583;stroke-linecap:round;stroke-linejoin:round"
         d="m 47.081844,-53.624662 19.594742,-19.594742 c 0.979741,-0.979741 -25.64445,-8.009182 -26.624191,-7.029449 -0.979733,0.979733 6.049707,27.603932 7.029449,26.624191 z" />
      <path
         id="path8919"
         style="fill:#ff6600;fill-opacity:1;stroke:#ff6600;stroke-width:2.64583;stroke-linecap:round;stroke-linejoin:round;stroke-opacity:1"
         d="m 47.081844,-53.624662 19.594742,-19.594742 c 0.979741,-0.979741 -25.64445,-8.009182 -26.624191,-7.029449 -0.979733,0.979733 6.049707,27.603932 7.029449,26.624191 z" />
      <path
         id="path8921"
         style="fill:#ff6600;fill-opacity:1;stroke:#ff6600;stroke-width:2.64583;stroke-linecap:round;stroke-linejoin:round;stroke-opacity:1"
         d="m 131.45372,-74.866561 -11.73271,-4.792992 c -0.58664,-0.239649 9.33266,-7.7643 9.91929,-7.52465 0.58663,0.239649 2.40006,12.557291 1.81342,12.317642 z" />
      <path
         id="path8923"
         style="fill:#ff6600;fill-opacity:1;stroke:#ff6600;stroke-width:2.64583;stroke-linecap:round;stroke-linejoin:round;stroke-opacity:1"
         d="M 83.569796,42.347871 71.837088,37.55488 c -0.586631,-0.23965 1.226775,12.077984 1.813414,12.317633 0.586631,0.239649 10.505934,-7.284993 9.919294,-7.524642 z" />
      <path
         id="path8925"
         style="fill:#ff6600;fill-opacity:1;stroke:#ff6600;stroke-width:2.64583;stroke-linecap:round;stroke-linejoin:round;stroke-opacity:1"
         d="m 162.57759,-36.971092 -4.83906,-11.713778 c -0.24196,-0.585684 12.08271,1.179297 12.32467,1.764981 0.24195,0.585693 -7.24365,10.53449 -7.48561,9.948797 z" />
      <path
         id="path8927"
         style="fill:#ff6600;fill-opacity:1;stroke:#ff6600;stroke-width:2.64583;stroke-linecap:round;stroke-linejoin:round;stroke-opacity:1"
         d="M 45.552279,11.37318 40.713211,-0.34059842 C 40.471249,-0.92628241 32.985656,9.0225144 33.227609,9.6081984 33.469562,10.193882 45.794232,11.958873 45.552279,11.37318 Z" />
      <path
         id="path8929"
         style="fill:none;fill-opacity:0.68662;stroke:#000000;stroke-width:2.64583;stroke-linecap:round;stroke-linejoin:round"
         d="m 40.703719,-36.939499 4.832996,-11.716288 c 0.241658,-0.585809 -12.082101,1.185557 -12.32375,1.771375 -0.24165,0.585809 7.249105,10.530731 7.490754,9.944913 z" />
      <path
         id="path8931"
         style="fill:#ff6600;fill-opacity:1;stroke:#ff6600;stroke-width:2.64583;stroke-linecap:round;stroke-linejoin:round;stroke-opacity:1"
         d="m 40.703719,-36.939499 4.832996,-11.716288 c 0.241658,-0.585809 -12.082101,1.185557 -12.32375,1.771375 -0.24165,0.585809 7.249105,10.530731 7.490754,9.944913 z" />
      <path
         id="path8933"
         style="fill:#ff6600;fill-opacity:1;stroke:#ff6600;stroke-width:2.64583;stroke-linecap:round;stroke-linejoin:round;stroke-opacity:1"
         d="m 71.593027,-74.736458 11.71176,-4.843953 c 0.585586,-0.242194 -9.366318,-7.723653 -9.951913,-7.481459 -0.585586,0.242194 -2.345433,12.567606 -1.759847,12.325412 z" />
      <g
         id="g13845"
         transform="translate(-458.38863,886.94358)">
        <path
           id="path13556"
           style="opacity:1;fill:#127e3c;fill-opacity:1;stroke:none;stroke-width:4.99999;stroke-linecap:round;stroke-linejoin:round;stroke-dasharray:none;stroke-opacity:1"
           d="m 660.16113,-935.34883 -2.35047,-4.36516 c -53.90664,28.99536 -90.89126,68.2137 -120.25209,117.16597 l 2.35047,4.36516 c 14.27207,-13.8164 27.83833,-24.44166 37.18218,-29.79374 -4.92026,-9.97375 32.31437,-43.51262 62.4501,-48.0009 9.4718,-17.73804 20.61981,-39.37133 20.61981,-39.37133 z" />
        <path
           id="path13785"
           style="opacity:1;fill:#169949;fill-opacity:1;stroke:none;stroke-width:4.99999;stroke-linecap:round;stroke-linejoin:round;stroke-dasharray:none;stroke-opacity:1"
           d="m 657.81066,-939.71399 c -68.05049,10.02005 -103.59864,42.35903 -120.25209,117.16597 14.27207,-13.8164 24.87939,-21.97183 34.22324,-27.32391 -3.50692,-11.69666 29.9008,-44.13565 65.40904,-50.47073 9.4718,-17.73804 20.61981,-39.37133 20.61981,-39.37133 z" />
      </g>
      <path
         id="path8937"
         style="fill:#1a1a1a;fill-opacity:1;stroke:#ffffff;stroke-width:2.64599;stroke-linecap:round;stroke-linejoin:round;stroke-dasharray:none;stroke-opacity:1"
         d="m 145.36625,-42.23278 -22.77536,22.06894 -6.90397,-6.72517 -37.44061,37.44112 h 5.69836 V 39.93637 H 101.6454 V 15.44329 h 6.88537 6.88589 v 9.7069 c 10.44559,-12.78415 23.84757,-23.00706 38.56663,-30.409 6.5038,-3.23619 13.23908,-6.01088 20.13418,-8.30388 z" />
      <path
         style="fill:#1a1a1a;fill-opacity:1;stroke:#ffffff;stroke-width:2.64599;stroke-linecap:round;stroke-linejoin:round;stroke-dasharray:none;stroke-opacity:1"
         d="m 122.59056,-20.16366 16.50576,16.5058"
         id="path9279" />
      <rect
         style="fill:#ffffff;fill-opacity:1;stroke:#ffffff;stroke-width:4.99999;stroke-linecap:round;stroke-linejoin:round;stroke-dasharray:none;stroke-opacity:1"
         id="rect13839"
         width="8.5097742"
         height="7.4683695"
         x="111.43204"
         y="-9.4107904"
         rx="14.592915"
         ry="1.0728806e-05" />
      <rect
         style="fill:#ffffff;fill-opacity:1;stroke:#ffffff;stroke-width:4.99999;stroke-linecap:round;stroke-linejoin:round;stroke-dasharray:none;stroke-opacity:1"
         id="rect13841"
         width="6.5795951"
         height="5.6869788"
         x="142.07646"
         y="-24.330162"
         rx="14.592914"
         ry="1.0728806e-05" />
    </g>
  </g>
</svg>
