<svg xmlns="http://www.w3.org/2000/svg" viewBox="0 0 187.5 184.5"><defs><style>.cls-1{fill:#333;}</style></defs><g id="Layer_2" data-name="Layer 2"><g id="svg1044"><path id="rect1427" class="cls-1" d="M14.9,0A14.87,14.87,0,0,0,0,14.9V172.6a14.88,14.88,0,0,0,5.91,11.9c63.42-13.73,39.78-61.67,127.21-63.37-49.64,37.83,17.54,45.84,53,57.73a14.92,14.92,0,0,0,1.37-6.26V14.9A14.87,14.87,0,0,0,172.6,0ZM134,7.31a46.88,46.88,0,0,1,0,93.75h0A46.87,46.87,0,0,1,87.16,54.19h0A46.88,46.88,0,0,1,134,7.31Z"/></g></g></svg>